<svg width="830" height="76" viewBox="0 0 830 76" fill="none" xmlns="http://www.w3.org/2000/svg">
<path d="M117.601 1.6084V73.6883H97.4916V17.7406H33.8104L33.3807 29.4964C33.0369 39.7936 32.1775 48.2029 30.8884 54.6386C29.5134 61.0743 27.279 66.0512 24.0133 69.6552C20.7476 73.1734 16.1928 74.9754 10.2629 74.9754C7.51288 74.9754 4.41906 74.5463 0.981476 73.7741L2.09868 57.1271C2.95808 57.2987 3.90341 57.4703 4.84875 57.4703C7.51287 57.4703 9.57543 56.4406 11.0364 54.2954C12.4974 52.1501 13.5286 49.2326 14.1302 45.3712C14.7318 41.5956 15.1615 36.6186 15.3334 30.5262L16.3646 1.78002H117.601V1.6084Z" fill="white"/>
<path d="M133.071 1.6084H153.18V43.9124L183.001 1.6084H202.166V73.6883H182.056V31.4701L152.321 73.6883H133.071V1.6084V1.6084Z" fill="white"/>
<path d="M312.598 1.60851V73.6884H292.488V49.1469C286.902 51.0347 247.456 51.8928 242.729 51.8928C232.589 51.8928 224.94 49.4901 219.612 44.599C214.283 39.7079 211.619 32.7573 211.619 23.6615V1.52271H231.729V21.4305C231.729 30.6979 236.284 35.3316 245.308 35.3316C250.292 35.3316 288.879 34.4735 292.488 32.8431V1.52271H312.598V1.60851Z" fill="white"/>
<path d="M420.366 57.8993V73.6883H328.067V1.6084H419.077V17.3973H348.263V29.5823H414.694V44.8563H348.263V58.071H420.366V57.8993Z" fill="white"/>
<path d="M446.75 70.3424C440.734 67.1675 436.007 62.7054 432.57 57.042C429.132 51.3786 427.413 44.8571 427.413 37.6491C427.413 30.4411 429.132 24.0054 432.57 18.2562C436.007 12.5927 440.734 8.13065 446.75 4.95571C452.766 1.78076 459.555 0.150391 467.118 0.150391C473.735 0.150391 479.665 1.35172 484.993 3.66857C490.321 5.98542 494.704 9.33198 498.228 13.7941L485.251 25.55C480.61 19.8865 474.938 17.1406 468.235 17.1406C464.282 17.1406 460.844 17.9987 457.75 19.7149C454.656 21.4311 452.336 23.8338 450.617 27.0087C448.898 30.0978 448.125 33.7018 448.125 37.7349C448.125 41.7679 448.984 45.3719 450.617 48.461C452.336 51.5502 454.656 54.0387 457.75 55.7548C460.844 57.471 464.282 58.3291 468.235 58.3291C474.938 58.3291 480.61 55.4974 485.251 49.9198L498.228 61.6757C494.704 66.052 490.321 69.3985 484.993 71.8012C479.665 74.118 473.735 75.3194 467.118 75.3194C459.555 75.1477 452.766 73.5174 446.75 70.3424Z" fill="white"/>
<path d="M588.035 46.0576H527.189V73.6883H506.908V1.6084H527.189V29.5823H588.55L605.738 1.6084H627.223L604.621 36.447L627.395 73.6883H604.363L588.035 46.0576Z" fill="white"/>
<path d="M682.138 59.7013H651.63L645.958 73.6883H625.16L657.044 1.6084H677.154L709.123 73.6883H687.896L682.138 59.7013ZM676.123 44.6847L666.841 21.602L657.56 44.6847H676.123Z" fill="white"/>
<path d="M829.353 1.6084V73.6883H809.243V55.5825H746.507L734.647 73.6883H713.162L727.772 52.5792C722.96 50.4339 719.264 47.3448 716.772 43.3976C714.194 39.3645 712.991 34.5592 712.991 29.0674C712.991 23.404 714.28 18.5987 716.944 14.4798C719.522 10.361 723.303 7.18601 728.202 5.04078C733.1 2.80973 738.772 1.78002 745.304 1.78002H829.353V1.6084ZM733.616 28.7242C733.616 32.3282 734.647 35.1599 736.624 37.0477C738.687 38.9355 741.608 39.8794 745.476 39.8794H809.243V17.7406H745.734C737.655 17.6547 733.616 21.3446 733.616 28.7242Z" fill="white"/>
</svg>
