<svg width="529" height="88" viewBox="0 0 529 88" fill="none" xmlns="http://www.w3.org/2000/svg">
<path d="M57.1918 58.2647H26.6833L21.0113 72.2516H0.213959L32.0975 0.171753H52.2074L84.1769 72.2516H62.9498L57.1918 58.2647ZM51.1761 43.2481L41.8946 20.1653L32.6132 43.2481H51.1761Z" fill="#4EFF01"/>
<path d="M164.53 44.7068H112.279V72.3374H91.9115V0.257568H112.193V28.2314H164.96L182.148 0.257568H203.633L181.031 35.0962L203.805 72.3374H180.773L164.53 44.7068Z" fill="#4EFF01"/>
<path d="M288.369 56.1194V87.0108H269.72V72.2516H210.508V0.171753H230.618V56.1194H258.376V0.171753H278.486V56.1194H288.369Z" fill="#4EFF01"/>
<path d="M298.08 0.171753H318.19V42.4758L390.981 0.171753H410.146V72.2516H390.036V30.0334L317.331 72.2516H298.08V0.171753Z" fill="#4EFF01"/>
<path d="M529 0.171753V72.2516H508.89V54.1458H454.748L442.888 72.2516H421.404L436.013 51.1425C431.201 48.9973 427.505 45.9081 425.013 41.9609C422.435 37.9279 421.232 33.1226 421.232 27.6308C421.232 21.9673 422.521 17.162 425.185 13.0432C427.763 8.92431 431.544 5.74937 436.443 3.60414C441.342 1.3731 447.014 0.343376 453.545 0.343376H529V0.171753ZM441.857 27.2875C441.857 30.8915 442.889 33.7232 444.865 35.611C446.928 37.4988 449.85 38.4427 453.717 38.4427H508.89V16.2181H453.975C445.896 16.2181 441.857 19.9079 441.857 27.2875Z" fill="#4EFF01"/>
</svg>
