<svg width="526" height="77" viewBox="0 0 526 77" fill="none" xmlns="http://www.w3.org/2000/svg">
<path d="M73.3997 46.7663H21.1485V74.3969H0.86673V2.31702H21.1485V30.2909H73.9153L91.1032 2.31702H112.588L89.986 37.1556L112.76 74.3969H89.7282L73.3997 46.7663Z" fill="#4EFF01"/>
<path d="M388.196 18.4492H331.734V74.3969H311.624V18.4492H255.076V2.31702H388.196V18.4492V18.4492Z" fill="#4EFF01"/>
<path d="M213.395 76.7135H154.527C133.386 76.7135 116.112 59.5517 116.112 38.3568C116.112 17.1619 133.386 0 154.527 0H213.395C234.536 0 251.81 17.1619 251.81 38.3568C251.81 59.5517 234.536 76.7135 213.395 76.7135ZM154.527 17.1619C142.839 17.1619 133.3 26.6867 133.3 38.3568C133.3 50.0268 142.839 59.5517 154.527 59.5517H213.395C225.083 59.5517 234.622 50.0268 234.622 38.3568C234.622 26.6867 225.083 17.1619 213.395 17.1619H154.527V17.1619Z" fill="#4EFF01"/>
<path d="M487.113 76.7135H428.244C407.103 76.7135 389.829 59.5517 389.829 38.3568C389.829 17.1619 407.103 0 428.244 0H487.113C508.254 0 525.528 17.1619 525.528 38.3568C525.528 59.5517 508.34 76.7135 487.113 76.7135ZM428.244 17.1619C416.556 17.1619 407.017 26.6867 407.017 38.3568C407.017 50.0268 416.556 59.5517 428.244 59.5517H487.113C498.8 59.5517 508.34 50.0268 508.34 38.3568C508.34 26.6867 498.8 17.1619 487.113 17.1619H428.244V17.1619Z" fill="#4EFF01"/>
</svg>
