<svg width="461" height="75" viewBox="0 0 461 75" fill="none" xmlns="http://www.w3.org/2000/svg">
<path d="M111.877 0.171997V72.2519H91.4232V44.1064H20.6949V72.2519H0.241333V0.171997H20.6949V27.2878H91.5091V0.171997H111.877Z" fill="#4EFF01"/>
<path d="M195.926 0.17161L166.019 55.8619C162.839 61.8686 158.972 66.3307 154.417 69.4198C149.862 72.5089 144.878 74.0535 139.377 74.0535C135.424 74.0535 131.127 73.1954 126.572 71.3934L131.385 56.3768C134.221 57.2349 136.627 57.5781 138.604 57.5781C140.581 57.5781 142.385 57.149 143.932 56.2051C145.479 55.347 146.94 53.8883 148.229 52.0005L120.213 0.0858154H141.784L158.628 34.9244L176.074 0.0858154H195.926V0.17161Z" fill="#4EFF01"/>
<path d="M260.38 16.3897H238.294V72.3374H218.184V16.3897H196.012V0.257568H260.38V16.3897Z" fill="#4EFF01"/>
<path d="M362.734 3.43252C367.547 5.57775 371.242 8.66689 373.906 12.6999C376.485 16.733 377.86 21.4525 377.86 26.8585C377.86 32.2645 376.571 36.984 373.906 40.9312C371.328 44.8784 367.547 47.9676 362.734 50.1128C357.922 52.258 352.25 53.3736 345.718 53.3736H290.201V72.2516H269.748V0.171753H345.718C352.25 0.171753 357.922 1.28728 362.734 3.43252ZM353.968 34.6671C356.117 32.8651 357.148 30.2908 357.148 26.8585C357.148 23.4261 356.117 20.8518 353.968 19.0498C351.82 17.162 348.64 16.3039 344.515 16.3039H290.201V37.413H344.515C348.726 37.3272 351.906 36.4691 353.968 34.6671Z" fill="#4EFF01"/>
<path d="M433.205 58.2647H402.696L397.024 72.2516H376.227L408.11 0.171753H428.22L460.19 72.2516H438.963L433.205 58.2647ZM427.189 43.2481L417.908 20.1653L408.626 43.2481H427.189Z" fill="#4EFF01"/>
</svg>
