<svg width="429" height="210" viewBox="0 0 429 210" fill="none" xmlns="http://www.w3.org/2000/svg">
<path d="M60.3152 55.6544V92.9337H49.9145V63.9979H16.9789L16.7567 70.078C16.5789 75.4036 16.1344 79.7528 15.4677 83.0813C14.7565 86.4098 13.6009 88.9839 11.9119 90.8478C10.2229 92.6674 7.8672 93.5994 4.80032 93.5994C3.378 93.5994 1.7779 93.3775 0 92.9781L0.577813 84.3684C1.02229 84.4571 1.51121 84.5459 2.00013 84.5459C3.378 84.5459 4.44474 84.0133 5.20035 82.9038C5.95596 81.7943 6.48932 80.2854 6.80045 78.2883C7.11158 76.3356 7.33383 73.7615 7.42272 70.6105L7.95609 55.7432H60.3152V55.6544Z" fill="#4EFF01"/>
<path d="M68.3157 55.6544H78.7164V77.5338L94.1397 55.6544H104.051V92.9337H93.6508V71.0987L78.272 92.9337H68.3157V55.6544Z" fill="#4EFF01"/>
<path d="M161.166 55.6545V92.9338H150.766V80.2411C147.877 81.2174 127.475 81.6612 125.031 81.6612C119.786 81.6612 115.83 80.4186 113.074 77.8889C110.319 75.3592 108.941 71.7645 108.941 67.0602V55.6101H119.341V65.9063C119.341 70.6993 121.697 73.0959 126.364 73.0959C128.942 73.0959 148.899 72.6521 150.766 71.8088V55.6101H161.166V55.6545Z" fill="#4EFF01"/>
<path d="M216.903 84.7678V92.9337H169.167V55.6544H216.237V63.8204H179.612V70.1223H213.97V78.022H179.612V84.8565H216.903V84.7678Z" fill="#4EFF01"/>
<path d="M230.549 91.2032C227.437 89.5611 224.993 87.2534 223.215 84.3243C221.437 81.3952 220.548 78.0223 220.548 74.2944C220.548 70.5664 221.437 67.2379 223.215 64.2645C224.993 61.3354 227.437 59.0276 230.549 57.3856C233.66 55.7435 237.171 54.9003 241.083 54.9003C244.505 54.9003 247.572 55.5216 250.328 56.7199C253.084 57.9181 255.35 59.6489 257.173 61.9567L250.461 68.0368C248.061 65.1077 245.128 63.6875 241.661 63.6875C239.616 63.6875 237.838 64.1313 236.238 65.0189C234.638 65.9065 233.438 67.1492 232.549 68.7912C231.66 70.3889 231.26 72.2529 231.26 74.3387C231.26 76.4246 231.704 78.2886 232.549 79.8863C233.438 81.4839 234.638 82.771 236.238 83.6586C237.838 84.5462 239.616 84.99 241.661 84.99C245.128 84.99 248.061 83.5254 250.461 80.6407L257.173 86.7208C255.35 88.9842 253.084 90.715 250.328 91.9576C247.572 93.1559 244.505 93.7772 241.083 93.7772C237.171 93.6885 233.66 92.8452 230.549 91.2032Z" fill="#4EFF01"/>
<path d="M303.62 78.6433H272.152V92.9337H261.662V55.6544H272.152V70.1223H303.887L312.777 55.6544H323.888L312.199 73.6727L323.977 92.9337H312.065L303.62 78.6433Z" fill="#4EFF01"/>
<path d="M352.29 85.6998H336.512L333.578 92.9337H322.822L339.312 55.6544H349.712L366.247 92.9337H355.268L352.29 85.6998ZM349.179 77.9332L344.379 65.995L339.578 77.9332H349.179Z" fill="#4EFF01"/>
<path d="M428.429 55.6544V92.9337H418.028V83.5695H385.581L379.448 92.9337H368.336L375.892 82.0162C373.403 80.9067 371.492 79.309 370.203 77.2675C368.869 75.1817 368.247 72.6964 368.247 69.8561C368.247 66.927 368.914 64.4417 370.292 62.3114C371.625 60.1812 373.581 58.5391 376.114 57.4296C378.648 56.2757 381.581 55.7432 384.959 55.7432H428.429V55.6544ZM378.914 69.6785C378.914 71.5425 379.448 73.007 380.47 73.9834C381.537 74.9598 383.048 75.448 385.048 75.448H418.028V63.9979H385.181C381.003 63.9535 378.914 65.8618 378.914 69.6785Z" fill="#4EFF01"/>
<path d="M89.4696 111.287V148.567H78.8911V134.01H42.3108V148.567H31.7323V111.287H42.3108V125.311H78.9355V111.287H89.4696Z" fill="white"/>
<path d="M132.939 111.285L117.471 140.088C115.827 143.195 113.827 145.503 111.471 147.1C109.115 148.698 106.537 149.497 103.693 149.497C101.648 149.497 99.4258 149.053 97.0701 148.121L99.5591 140.354C101.026 140.798 102.27 140.976 103.293 140.976C104.315 140.976 105.248 140.754 106.048 140.266C106.849 139.822 107.604 139.067 108.271 138.091L93.781 111.241H104.937L113.649 129.259L122.672 111.241H132.939V111.285Z" fill="white"/>
<path d="M166.275 119.673H154.852V148.609H144.451V119.673H132.984V111.33H166.275V119.673Z" fill="white"/>
<path d="M219.212 112.972C221.701 114.081 223.612 115.679 224.99 117.765C226.323 119.851 227.034 122.292 227.034 125.088C227.034 127.884 226.368 130.325 224.99 132.366C223.656 134.408 221.701 136.005 219.212 137.115C216.723 138.224 213.789 138.801 210.411 138.801H181.698V148.565H171.12V111.286H210.411C213.789 111.286 216.723 111.862 219.212 112.972ZM214.678 129.126C215.789 128.194 216.323 126.863 216.323 125.088C216.323 123.313 215.789 121.981 214.678 121.049C213.567 120.073 211.922 119.629 209.789 119.629H181.698V130.546H209.789C211.967 130.502 213.611 130.058 214.678 129.126Z" fill="white"/>
<path d="M255.659 141.331H239.88L236.946 148.565H226.19L242.68 111.286H253.081L269.615 148.565H258.637L255.659 141.331ZM252.547 133.564L247.747 121.626L242.947 133.564H252.547Z" fill="white"/>
<path d="M124.666 194.178H108.887L105.953 201.412H95.197L111.687 164.133H122.088L138.622 201.412H127.644L124.666 194.178ZM121.554 186.412L116.754 174.473L111.954 186.412H121.554Z" fill="white"/>
<path d="M180.181 187.166H153.156V201.456H142.622V164.177H153.112V178.645H180.403L189.292 164.177H200.404L188.714 182.195L200.493 201.456H188.581L180.181 187.166Z" fill="white"/>
<path d="M244.229 193.069V209.045H234.584V201.412H203.96V164.133H214.361V193.069H228.717V164.133H239.118V193.069H244.229Z" fill="white"/>
<path d="M249.252 164.133H259.652V186.012L297.299 164.133H307.211V201.412H296.811V179.577L259.208 201.412H249.252V164.133Z" fill="white"/>
<path d="M368.682 164.133V201.412H358.281V192.048H330.279L324.146 201.412H313.034L320.59 190.495C318.101 189.385 316.19 187.787 314.901 185.746C313.567 183.66 312.945 181.175 312.945 178.334C312.945 175.405 313.612 172.92 314.99 170.79C316.323 168.66 318.279 167.018 320.812 165.908C323.346 164.754 326.279 164.222 329.657 164.222H368.682V164.133ZM323.612 178.157C323.612 180.021 324.146 181.485 325.168 182.462C326.235 183.438 327.746 183.926 329.746 183.926H358.281V172.432H329.879C325.701 172.432 323.612 174.34 323.612 178.157Z" fill="white"/>
<path d="M81.9586 24.1873H54.9346V38.4776H44.445V1.19836H54.9346V15.6663H82.2253L91.1148 1.19836H102.227L90.537 19.2167L102.316 38.4776H90.4036L81.9586 24.1873Z" fill="#4EFF01"/>
<path d="M244.77 9.54182H215.568V38.4776H205.167V9.54182H175.921V1.19836H244.77V9.54182Z" fill="#4EFF01"/>
<path d="M154.364 39.6758H123.917C112.983 39.6758 104.049 30.7998 104.049 19.8379C104.049 8.87602 112.983 0 123.917 0H154.364C165.298 0 174.232 8.87602 174.232 19.8379C174.232 30.7998 165.298 39.6758 154.364 39.6758ZM123.917 8.87602C117.872 8.87602 112.939 13.8022 112.939 19.8379C112.939 25.8736 117.872 30.7998 123.917 30.7998H154.364C160.408 30.7998 165.342 25.8736 165.342 19.8379C165.342 13.8022 160.408 8.87602 154.364 8.87602H123.917Z" fill="#4EFF01"/>
<path d="M295.929 39.6758H265.482C254.548 39.6758 245.614 30.7998 245.614 19.8379C245.614 8.87602 254.548 0 265.482 0H295.929C306.863 0 315.797 8.87602 315.797 19.8379C315.797 30.7998 306.907 39.6758 295.929 39.6758ZM265.482 8.87602C259.437 8.87602 254.504 13.8022 254.504 19.8379C254.504 25.8736 259.437 30.7998 265.482 30.7998H295.929C301.973 30.7998 306.907 25.8736 306.907 19.8379C306.907 13.8022 301.973 8.87602 295.929 8.87602H265.482Z" fill="#4EFF01"/>
</svg>
