<svg width="1020" height="303" viewBox="0 0 1020 303" fill="none" xmlns="http://www.w3.org/2000/svg">
<path d="M238.601 107.608V179.688H218.492V123.741H154.81L154.381 135.496C154.037 145.794 153.177 154.203 151.888 160.639C150.513 167.074 148.279 172.051 145.013 175.655C141.748 179.173 137.193 180.975 131.263 180.975C128.513 180.975 125.419 180.546 121.981 179.774L123.099 163.127C123.958 163.299 124.903 163.47 125.849 163.47C128.513 163.47 130.575 162.441 132.036 160.295C133.497 158.15 134.529 155.233 135.13 151.371C135.732 147.596 136.161 142.619 136.333 136.526L137.365 107.78H238.601V107.608Z" fill="#4EFF01"/>
<path d="M254.07 107.608H274.18V149.912L304.001 107.608H323.166V179.688H303.056V137.47L273.321 179.688H254.07V107.608Z" fill="#4EFF01"/>
<path d="M433.598 107.609V179.688H413.488V155.147C407.902 157.035 368.456 157.893 363.729 157.893C353.588 157.893 345.94 155.49 340.612 150.599C335.283 145.708 332.619 138.757 332.619 129.662V107.523H352.729V127.43C352.729 136.698 357.284 141.332 366.307 141.332C371.292 141.332 409.879 140.473 413.488 138.843V107.523H433.598V107.609Z" fill="#4EFF01"/>
<path d="M541.366 163.899V179.688H449.067V107.608H540.077V123.397H469.263V135.582H535.694V150.856H469.263V164.071H541.366V163.899Z" fill="#4EFF01"/>
<path d="M567.749 176.342C561.734 173.167 557.007 168.705 553.569 163.042C550.132 157.379 548.413 150.857 548.413 143.649C548.413 136.441 550.132 130.005 553.569 124.256C557.007 118.593 561.734 114.131 567.749 110.956C573.765 107.781 580.555 106.15 588.117 106.15C594.735 106.15 600.664 107.352 605.993 109.669C611.321 111.985 615.704 115.332 619.227 119.794L606.25 131.55C601.61 125.887 595.938 123.141 589.234 123.141C585.281 123.141 581.844 123.999 578.75 125.715C575.656 127.431 573.336 129.834 571.617 133.009C569.898 136.098 569.125 139.702 569.125 143.735C569.125 147.768 569.984 151.372 571.617 154.461C573.336 157.55 575.656 160.039 578.75 161.755C581.844 163.471 585.281 164.329 589.234 164.329C595.938 164.329 601.61 161.497 606.25 155.92L619.227 167.676C615.704 172.052 611.321 175.399 605.993 177.801C600.664 180.118 594.735 181.319 588.117 181.319C580.555 181.148 573.765 179.517 567.749 176.342Z" fill="#4EFF01"/>
<path d="M709.034 152.058H648.189V179.688H627.907V107.608H648.189V135.582H709.55L726.738 107.608H748.223L725.621 142.447L748.394 179.688H725.363L709.034 152.058Z" fill="#4EFF01"/>
<path d="M803.138 165.701H772.63L766.958 179.688H746.16L778.044 107.608H798.154L830.123 179.688H808.896L803.138 165.701ZM797.122 150.685L787.841 127.602L778.559 150.685H797.122Z" fill="#4EFF01"/>
<path d="M950.352 107.608V179.688H930.242V161.582H867.507L855.647 179.688H834.162L848.772 158.579C843.959 156.434 840.264 153.345 837.772 149.398C835.193 145.365 833.99 140.559 833.99 135.067C833.99 129.404 835.279 124.599 837.943 120.48C840.522 116.361 844.303 113.186 849.202 111.041C854.1 108.81 859.772 107.78 866.303 107.78H950.352V107.608ZM854.616 134.724C854.616 138.328 855.647 141.16 857.624 143.048C859.686 144.935 862.608 145.879 866.475 145.879H930.242V123.741H866.733C858.655 123.655 854.616 127.345 854.616 134.724Z" fill="#4EFF01"/>
<path d="M111.877 215.172V287.252H91.4231V259.106H20.6948V287.252H0.241211V215.172H20.6948V242.288H91.509V215.172H111.877Z" fill="white"/>
<path d="M195.926 215.172L166.019 270.862C162.839 276.869 158.972 281.331 154.417 284.42C149.862 287.509 144.878 289.054 139.377 289.054C135.424 289.054 131.127 288.195 126.572 286.393L131.385 271.377C134.221 272.235 136.627 272.578 138.604 272.578C140.581 272.578 142.385 272.149 143.932 271.205C145.479 270.347 146.94 268.888 148.229 267L120.213 215.086H141.784L158.628 249.924L176.074 215.086H195.926V215.172Z" fill="white"/>
<path d="M260.38 231.39H238.294V287.337H218.184V231.39H196.012V215.258H260.38V231.39Z" fill="white"/>
<path d="M362.734 218.433C367.547 220.578 371.242 223.667 373.906 227.7C376.484 231.733 377.859 236.452 377.859 241.858C377.859 247.264 376.57 251.984 373.906 255.931C371.328 259.878 367.547 262.968 362.734 265.113C357.922 267.258 352.25 268.374 345.718 268.374H290.201V287.252H269.748V215.172H345.718C352.25 215.172 357.922 216.287 362.734 218.433ZM353.968 249.667C356.117 247.865 357.148 245.291 357.148 241.858C357.148 238.426 356.117 235.852 353.968 234.05C351.82 232.162 348.64 231.304 344.515 231.304H290.201V252.413H344.515C348.726 252.327 351.906 251.469 353.968 249.667Z" fill="white"/>
<path d="M433.204 273.265H402.696L397.024 287.252H376.227L408.11 215.172H428.22L460.19 287.252H438.962L433.204 273.265ZM427.189 258.248L417.907 235.165L408.626 258.248H427.189Z" fill="white"/>
<path d="M548.192 273.265H517.683L512.011 287.252H491.214L523.097 215.172H543.207L575.177 287.252H553.95L548.192 273.265ZM542.176 258.248L532.895 235.165L523.613 258.248H542.176Z" fill="white"/>
<path d="M655.53 259.707H603.279V287.337H582.911V215.258H603.193V243.231H655.96L673.148 215.258H694.633L672.03 250.096L694.804 287.337H671.773L655.53 259.707Z" fill="white"/>
<path d="M779.369 271.119V302.011H760.72V287.252H701.508V215.172H721.618V271.119H749.376V215.172H769.486V271.119H779.369Z" fill="white"/>
<path d="M789.08 215.172H809.19V257.476L881.981 215.172H901.145V287.252H881.035V245.033L808.331 287.252H789.08V215.172Z" fill="white"/>
<path d="M1020 215.172V287.252H999.89V269.146H945.748L933.888 287.252H912.403L927.013 266.143C922.2 263.997 918.505 260.908 916.013 256.961C913.435 252.928 912.231 248.123 912.231 242.631C912.231 236.967 913.521 232.162 916.185 228.043C918.763 223.924 922.544 220.749 927.443 218.604C932.341 216.373 938.013 215.343 944.545 215.343H1020V215.172ZM932.857 242.288C932.857 245.892 933.888 248.723 935.865 250.611C937.927 252.499 940.849 253.443 944.717 253.443H999.89V231.218H944.974C936.896 231.218 932.857 234.908 932.857 242.288Z" fill="white"/>
<path d="M107.4 46.7663H55.1484V74.3969H34.8667V2.31702H55.1484V30.2909H107.915L125.103 2.31702H146.588L123.986 37.1556L146.76 74.3969H123.728L107.4 46.7663Z" fill="#4EFF01"/>
<path d="M422.196 18.4492H365.734V74.3969H345.624V18.4492H289.076V2.31702H422.196V18.4492Z" fill="#4EFF01"/>
<path d="M247.395 76.7135H188.527C167.386 76.7135 150.112 59.5517 150.112 38.3568C150.112 17.1619 167.386 0 188.527 0H247.395C268.536 0 285.81 17.1619 285.81 38.3568C285.81 59.5517 268.536 76.7135 247.395 76.7135ZM188.527 17.1619C176.839 17.1619 167.3 26.6867 167.3 38.3568C167.3 50.0268 176.839 59.5517 188.527 59.5517H247.395C259.083 59.5517 268.622 50.0268 268.622 38.3568C268.622 26.6867 259.083 17.1619 247.395 17.1619H188.527Z" fill="#4EFF01"/>
<path d="M521.113 76.7135H462.244C441.103 76.7135 423.829 59.5517 423.829 38.3568C423.829 17.1619 441.103 0 462.244 0H521.113C542.254 0 559.528 17.1619 559.528 38.3568C559.528 59.5517 542.34 76.7135 521.113 76.7135ZM462.244 17.1619C450.556 17.1619 441.017 26.6867 441.017 38.3568C441.017 50.0268 450.556 59.5517 462.244 59.5517H521.113C532.8 59.5517 542.34 50.0268 542.34 38.3568C542.34 26.6867 532.8 17.1619 521.113 17.1619H462.244Z" fill="#4EFF01"/>
</svg>
