<svg width="229" height="53" viewBox="0 0 229 53" fill="none" xmlns="http://www.w3.org/2000/svg">
<path d="M53.3771 32.4089H15.2657V52.555H0.472412V0H15.2657V20.3964H53.7532L66.2899 0H81.9608L65.475 25.4016L82.0861 52.555H65.287L53.3771 32.4089Z" fill="#4EFF01"/>
<path d="M121.953 42.3569H99.7001L95.563 52.555H80.3937L103.586 0H118.254L141.573 52.555H126.09L121.953 42.3569ZM117.628 31.4079L110.858 14.5778L104.088 31.4079H117.628Z" fill="#4EFF01"/>
<path d="M200.244 32.4089H162.133V52.555H147.339V0H162.133V20.3964H200.62L213.157 0H228.828L212.342 25.4016L228.953 52.555H212.154L200.244 32.4089Z" fill="#4EFF01"/>
</svg>
