<svg width="484" height="53" viewBox="0 0 484 53" fill="none" xmlns="http://www.w3.org/2000/svg">
<path d="M80.7361 0.263855V52.8189H66.0056V12.0262H14.6679V52.8189H0V0.263855H80.7361Z" fill="white"/>
<path d="M128.501 2.64141C132.011 4.20554 134.707 6.4579 136.65 9.39848C138.53 12.3391 139.533 15.7802 139.533 19.7218C139.533 23.6634 138.593 27.1045 136.65 29.9825C134.769 32.8605 132.011 35.1129 128.501 36.677C124.991 38.2412 120.853 39.0545 116.09 39.0545H106.938V52.819H92.0192V0.263916H116.09C120.853 0.263916 124.991 1.07727 128.501 2.64141ZM122.107 25.4153C123.674 24.1014 124.426 22.2244 124.426 19.7218C124.426 17.2192 123.674 15.3422 122.107 14.0283C120.54 12.6519 118.221 12.0262 115.212 12.0262H106.938V27.4173H115.212C118.221 27.3548 120.54 26.7291 122.107 25.4153Z" fill="white"/>
<path d="M146.178 0.263916H160.845V31.1087L182.597 0.263916H196.575V52.819H181.907V22.0367L160.219 52.819H146.178V0.263916Z" fill="white"/>
<path d="M289.284 0.263916V52.819H274.365V32.2975H222.714V52.819H207.795V0.263916H222.714V20.0346H274.365V0.263916H289.284Z" fill="white"/>
<path d="M344.633 0.263916V52.819H329.965V39.6176H321.816L313.166 52.819H297.495L308.151 37.4278C304.641 35.8637 301.946 33.6113 300.128 30.7333C298.247 27.7927 297.37 24.2891 297.37 20.2849C297.37 16.1556 298.31 12.6519 300.253 9.64874C302.134 6.6456 304.892 4.33067 308.465 2.76653C312.038 1.13983 316.175 0.389044 320.939 0.389044H344.633V0.263916ZM312.414 20.0346C312.414 22.6624 313.166 24.727 314.608 26.1035C316.112 27.4799 318.243 28.1681 321.064 28.1681H329.965V12.0262H321.252C315.36 11.9637 312.414 14.654 312.414 20.0346Z" fill="white"/>
<path d="M398.353 12.0888H382.243V52.8815H367.575V12.0888H351.403V0.326477H398.353V12.0888Z" fill="white"/>
<path d="M478.337 21.3485C481.847 24.2265 483.602 28.481 483.602 34.1744C483.602 40.2433 481.659 44.8731 477.71 48.064C473.823 51.2548 468.37 52.8815 461.412 52.8815H405.185V0.326477H419.853V17.094H463.355C469.874 17.0315 474.826 18.4705 478.337 21.3485ZM466.427 40.1181C467.931 38.7417 468.621 36.8647 468.621 34.4247C468.621 29.8574 465.863 27.605 460.409 27.605H419.79V42.1828H460.409C462.979 42.1828 464.922 41.4946 466.427 40.1181Z" fill="white"/>
</svg>
