<svg width="514" height="55" viewBox="0 0 514 55" fill="none" xmlns="http://www.w3.org/2000/svg">
<path d="M56.046 1.13116L34.2322 41.7362C31.913 46.1157 29.0922 49.3692 25.77 51.6215C22.4478 53.8739 18.8121 55.0001 14.8004 55.0001C11.917 55.0001 8.7828 54.3744 5.46059 53.0605L8.97085 42.1116C11.0394 42.7372 12.7945 42.9875 14.2363 42.9875C15.678 42.9875 16.9943 42.6747 18.1226 41.9864C19.2509 41.3608 20.3165 40.2972 21.2568 38.9207L0.822021 1.13116H16.5555L28.8415 26.5327L41.5662 1.13116H56.046Z" fill="#4EFF01"/>
<path d="M138.913 1.13111V53.6861H124.246V35.7924C120.171 37.1688 85.1311 37.7945 81.6836 37.7945C74.2869 37.7945 68.7081 36.0427 64.8217 32.4764C60.9354 28.9102 58.9922 23.8424 58.9922 17.2104V1.06854H73.6601V15.5837C73.6601 22.3408 76.9823 25.7194 83.5641 25.7194C87.1997 25.7194 121.613 25.0937 124.246 23.905V1.06854H138.913V1.13111Z" fill="#4EFF01"/>
<path d="M217.832 43.4254H164.237L160.1 53.6236H144.931L168.187 1.06854H214.196L237.514 53.6236H222.032L217.832 43.4254ZM213.507 32.4764L206.549 15.6463H175.395L168.625 32.4764H213.507Z" fill="#4EFF01"/>
<path d="M253.561 51.2461C249.173 48.9312 245.726 45.6778 243.219 41.5485C240.711 37.4191 239.458 32.6641 239.458 27.4086C239.458 22.1531 240.711 17.4607 243.219 13.2688C245.726 9.13951 249.173 5.88611 253.561 3.57118C257.949 1.25626 262.901 0.0675049 268.417 0.0675049C273.244 0.0675049 277.569 0.943421 281.455 2.63269C285.342 4.32196 288.539 6.76202 291.109 10.0154L281.643 18.5869C278.259 14.4576 274.121 12.4555 269.232 12.4555C266.349 12.4555 263.841 13.0811 261.585 14.3324C259.328 15.5838 257.636 17.3356 256.382 19.6505C255.128 21.9029 254.564 24.5306 254.564 27.4712C254.564 30.4118 255.191 33.0395 256.382 35.2919C257.636 37.5443 259.328 39.3586 261.585 40.61C263.841 41.8613 266.349 42.4869 269.232 42.4869C274.121 42.4869 278.259 40.4223 281.643 36.3555L291.109 44.927C288.539 48.1178 285.342 50.5579 281.455 52.3097C277.569 53.999 273.244 54.8749 268.417 54.8749C262.901 54.6872 257.949 53.561 253.561 51.2461Z" fill="#4EFF01"/>
<path d="M339.688 12.8935H323.641V53.6862H308.973V12.8935H292.801V1.13116H339.751V12.8935H339.688Z" fill="#4EFF01"/>
<path d="M346.583 1.13116H361.251V31.976L414.344 1.13116H428.322V53.6862H413.655V22.904L360.624 53.6862H346.583V1.13116Z" fill="#4EFF01"/>
<path d="M513.196 42.1741V53.6862H439.605V1.13116H512.255V12.6432H454.336V21.5275H509.059V32.6642H454.336V42.2993H513.196V42.1741Z" fill="#4EFF01"/>
</svg>
