<svg width="217" height="47" viewBox="0 0 217 47" fill="none" xmlns="http://www.w3.org/2000/svg">
<path d="M1.0439 1.45062V42.2315C1.0439 42.4568 1.21952 42.6821 1.48295 42.6821C1.74638 42.6821 1.92199 42.5019 1.92199 42.2315V1.90123H215.21V44.6648H1.43904C1.21952 44.6648 1 44.8451 1 45.1154C1 45.3407 1.17562 45.5661 1.43904 45.5661H215.561C215.78 45.5661 216 45.3858 216 45.1154V1.45062C216 1.22531 215.824 1 215.561 1H1.43904C1.21952 1.04506 1.0439 1.22531 1.0439 1.45062Z" fill="#4EFF01" stroke="#4EFF01" stroke-width="1.55252" stroke-miterlimit="10"/>
<path d="M18.3417 12.1306H13.3805C13.161 12.1306 12.9415 12.3109 12.9415 12.5812V34.0757C12.9415 34.301 13.1171 34.5263 13.3805 34.5263C13.6 34.5263 13.8196 34.346 13.8196 34.0757V12.9868H17.9027V29.7497C17.9027 29.9751 18.0783 30.2004 18.3417 30.2004H27.869V33.6251H16.1465C15.927 33.6251 15.7074 33.8053 15.7074 34.0757C15.7074 34.301 15.8831 34.5263 16.1465 34.5263H28.2641C28.4836 34.5263 28.7032 34.346 28.7032 34.0757V29.7497C28.7032 29.5244 28.5275 29.2991 28.2641 29.2991H18.7369V12.5362C18.7369 12.3109 18.5612 12.1306 18.3417 12.1306Z" fill="#4EFF01" stroke="#4EFF01" stroke-width="1.55252" stroke-miterlimit="10"/>
<path d="M34.4547 14.6089C34.2352 14.6089 34.0156 14.7892 34.0156 15.0595V34.0756C34.0156 34.3009 34.1913 34.5262 34.4547 34.5262H50.2603C50.4798 34.5262 50.6993 34.3459 50.6993 34.0756V30.0651C50.6993 29.8398 50.5237 29.6145 50.2603 29.6145H39.372V25.5138H49.2066C49.4261 25.5138 49.6456 25.3336 49.6456 25.0632V20.9175C49.6456 20.6922 49.47 20.4669 49.2066 20.4669H39.1525V16.5015H50.2164C50.4359 16.5015 50.6554 16.3213 50.6554 16.0509V12.5361C50.6554 12.3108 50.4798 12.0854 50.2164 12.0854H34.4108C34.1913 12.0854 33.9717 12.2657 33.9717 12.5361C33.9717 12.7614 34.1474 12.9867 34.4108 12.9867H49.7773V15.6003H38.7573C38.5378 15.6003 38.3183 15.7805 38.3183 16.0509V20.9175C38.3183 21.1429 38.4939 21.3682 38.7573 21.3682H48.7675V24.6577H38.9329C38.7134 24.6577 38.4939 24.8379 38.4939 25.1083V30.1101C38.4939 30.3354 38.6695 30.5608 38.9329 30.5608H49.7773V33.67H34.8498V15.0595C34.8937 14.7892 34.6742 14.6089 34.4547 14.6089Z" fill="#4EFF01" stroke="#4EFF01" stroke-width="1.55252" stroke-miterlimit="10"/>
<path d="M61.3248 29.659L59.9199 33.6244H57.7247C57.5051 33.6244 57.2856 33.8047 57.2856 34.075C57.2856 34.3003 57.4612 34.5257 57.7247 34.5257H60.2272C60.4028 34.5257 60.5785 34.3905 60.6224 34.2553L62.0712 30.2448H69.4032L70.8082 34.2102C70.896 34.4355 71.0716 34.5707 71.2911 34.5707H75.5938C75.7694 34.5707 75.945 34.4806 76.0328 34.3454C76.1206 34.2102 76.1645 34.03 76.1206 33.8497L69.0081 12.5806C68.9203 12.3553 68.7447 12.2201 68.4813 12.2201H62.8615C62.642 12.2201 62.4224 12.3553 62.3346 12.5806L54.9148 34.03C54.827 34.2553 54.9587 34.5257 55.1782 34.5707C55.2221 34.5707 55.266 34.6158 55.3099 34.6158C55.4855 34.6158 55.6611 34.5257 55.7051 34.3454L63.081 13.1213H68.2617L75.1547 33.7596H71.5107L70.1057 29.7942C70.0179 29.5689 69.8423 29.4337 69.5789 29.4337H61.8078C61.5883 29.2985 61.3687 29.4787 61.3248 29.659Z" fill="#4EFF01" stroke="#4EFF01" stroke-width="1.55252" stroke-miterlimit="10"/>
<path d="M68.4804 25.9638C68.5243 26.144 68.6999 26.2342 68.8755 26.2342C68.9194 26.2342 68.9633 26.2342 69.0072 26.1891C69.2268 26.099 69.3585 25.8737 69.2707 25.6033L66.0217 16.591C65.9339 16.3657 65.7144 16.2305 65.4949 16.2305C65.2754 16.2305 65.0558 16.3657 65.0119 16.591L62.202 25.4231C62.1581 25.6033 62.1581 25.7836 62.2898 25.9187C62.3777 26.0539 62.5533 26.144 62.7289 26.144H66.3291C66.5486 26.144 66.7681 25.9638 66.7681 25.6934C66.7681 25.4681 66.5925 25.2428 66.3291 25.2428H63.1679L65.5827 17.7175L68.4804 25.9638Z" fill="#4EFF01" stroke="#4EFF01" stroke-width="1.55252" stroke-miterlimit="10"/>
<path d="M81.7832 12.1302C81.5637 12.1302 81.3442 12.3105 81.3442 12.5809V33.8951C81.3442 34.2556 81.6076 34.5259 81.9588 34.5259H89.2909C96.0961 34.5259 100.882 29.7944 100.882 23.0352C100.882 16.2759 94.3838 12.1302 89.7299 12.1302H84.4175C84.198 12.1302 83.9784 12.3105 83.9784 12.5809C83.9784 12.8062 84.1541 13.0315 84.4175 13.0315H89.7299C94.0326 13.0315 100.004 16.8617 100.004 23.0352C100.004 29.3889 95.7009 33.6698 89.2909 33.6698H82.2223V12.5358C82.1784 12.3105 82.0027 12.1302 81.7832 12.1302Z" fill="#4EFF01" stroke="#4EFF01" stroke-width="1.55252" stroke-miterlimit="10"/>
<path d="M90.3451 29.2982H88.9402C88.7207 29.2982 88.5011 29.4784 88.5011 29.7488C88.5011 29.9741 88.6768 30.1994 88.9402 30.1994H90.3451C92.8916 30.1994 96.4478 27.6309 96.4478 23.4852C96.4478 19.3395 93.8575 16.4105 90.1256 16.4105H86.3498C85.9986 16.4105 85.7352 16.6809 85.7352 17.0414V29.6587C85.7352 29.884 85.9108 30.1093 86.1742 30.1093C86.3937 30.1093 86.6133 29.929 86.6133 29.6587V17.3118H90.1695C93.4184 17.3118 95.6137 19.7902 95.6137 23.4852C95.6137 27.3605 92.233 29.2982 90.3451 29.2982Z" fill="#4EFF01" stroke="#4EFF01" stroke-width="1.55252" stroke-miterlimit="10"/>
<path d="M106.546 34.0756C106.546 34.3009 106.722 34.5262 106.985 34.5262H111.683C111.902 34.5262 112.122 34.3459 112.122 34.0756V27.1361H115.415L119.586 34.2558C119.673 34.391 119.805 34.4811 119.937 34.4811H124.898C125.03 34.4811 125.205 34.391 125.249 34.2558C125.337 34.1206 125.337 33.9404 125.249 33.8052L120.947 26.0996C121.956 25.4237 124.547 23.3058 124.547 19.791C124.547 14.8793 121.912 12.0854 117.302 12.0854H107.248C107.029 12.0854 106.809 12.2657 106.809 12.5361V31.4169C106.809 31.6422 106.985 31.8675 107.248 31.8675C107.468 31.8675 107.687 31.6873 107.687 31.4169V12.9416H117.302C122.878 12.9416 123.713 17.2225 123.713 19.7459C123.713 23.3959 120.551 25.3336 120.2 25.5589C120.112 25.604 120.025 25.6941 119.981 25.8293C119.937 25.9194 119.981 26.0546 120.025 26.1447L124.195 33.5348H120.2L116.029 26.4151C115.941 26.2799 115.81 26.1898 115.678 26.1898H111.727C111.507 26.1898 111.288 26.37 111.288 26.6404V33.5348H107.029C106.722 33.625 106.546 33.8052 106.546 34.0756Z" fill="#4EFF01" stroke="#4EFF01" stroke-width="1.55252" stroke-miterlimit="10"/>
<path d="M111.376 18.6186C111.156 18.6186 110.937 18.7988 110.937 19.0692V22.8544C110.937 23.0797 111.112 23.305 111.376 23.305H115.634C118.444 23.305 119.717 21.4124 119.717 19.5198C119.717 17.3118 118.313 15.96 116.029 15.96H111.376C111.156 15.96 110.937 16.1402 110.937 16.4106C110.937 16.6359 111.112 16.8612 111.376 16.8612H116.029C117.83 16.8612 118.839 17.8526 118.839 19.5198C118.839 20.9167 118.005 22.4488 115.59 22.4488H111.771V19.1143C111.815 18.7988 111.595 18.6186 111.376 18.6186Z" fill="#4EFF01" stroke="#4EFF01" stroke-width="1.55252" stroke-miterlimit="10"/>
<path d="M169.023 17.1766C171.042 17.1766 172.93 18.213 174.072 19.9254C174.159 20.0606 174.335 20.1507 174.511 20.1056L179.164 19.2945C179.296 19.2494 179.428 19.2044 179.472 19.0692C179.516 18.934 179.56 18.7988 179.472 18.6636C177.628 14.4278 173.545 11.6791 169.023 11.6791C165.071 11.6791 161.471 13.7519 159.364 17.1766C157.212 20.6914 157.037 25.0624 158.924 29.0729C159.89 31.1457 161.515 32.813 163.534 33.8044C165.335 34.6606 167.179 35.1112 169.023 35.1112C170.384 35.1112 171.745 34.8859 173.018 34.3902C175.916 33.2636 178.242 30.9655 179.516 28.0815C179.56 27.9464 179.56 27.8112 179.516 27.676C179.472 27.5408 179.34 27.4957 179.208 27.4507L176.794 27.0001C176.574 26.955 176.355 27.1353 176.311 27.3606C176.267 27.5859 176.442 27.8112 176.662 27.8562L178.55 28.1717C177.364 30.605 175.301 32.5427 172.798 33.489C170.032 34.5704 166.915 34.3451 163.974 32.9482C162.13 32.047 160.637 30.5149 159.759 28.6673C158.002 24.9272 158.134 20.8717 160.154 17.6272C162.086 14.4278 165.466 12.5352 169.11 12.5352C173.106 12.5352 176.75 14.8334 178.55 18.4834L174.73 19.1593C173.413 17.3569 171.349 16.2754 169.154 16.2754C166.739 16.2754 164.544 17.5371 163.271 19.655C161.954 21.818 161.91 24.4766 163.095 26.955C163.622 28.0815 164.5 28.9828 165.598 29.5686C169.593 31.7315 173.237 29.9291 174.95 27.3606C175.081 27.1803 175.037 26.8649 174.818 26.7297C174.642 26.5945 174.379 26.6396 174.203 26.8649C172.71 29.118 169.505 30.6501 165.949 28.7575C165.071 28.2618 164.325 27.4957 163.842 26.5494C162.788 24.3865 162.832 22.0433 163.974 20.1056C164.939 18.2581 166.871 17.1766 169.023 17.1766Z" fill="#4EFF01" stroke="#4EFF01" stroke-width="1.55252" stroke-miterlimit="10"/>
<path d="M190.491 11.6795H185.793C185.574 11.6795 185.354 11.8598 185.354 12.1301C185.354 12.3555 185.53 12.5808 185.793 12.5808H190.052V20.782C190.052 21.0073 190.228 21.2326 190.491 21.2326H193.959C194.135 21.2326 194.267 21.1425 194.355 21.0073L198.745 12.4005H202.96L197.077 23.1703C196.989 23.3055 196.989 23.4857 197.077 23.6209L202.916 33.8499H198.965L193.872 25.2882C193.784 25.153 193.652 25.0629 193.52 25.0629H190.491C190.272 25.0629 190.052 25.2431 190.052 25.5135V33.8499H186.408V15.0592C186.408 14.8339 186.232 14.6085 185.969 14.6085C185.749 14.6085 185.53 14.7888 185.53 15.0592V34.2555C185.53 34.4808 185.705 34.7061 185.969 34.7061H190.491C190.711 34.7061 190.93 34.5258 190.93 34.2555V25.919H193.301L198.394 34.4808C198.482 34.6159 198.613 34.7061 198.745 34.7061H203.706C203.838 34.7061 204.014 34.6159 204.058 34.4808C204.145 34.3456 204.145 34.1653 204.058 34.0301L197.955 23.3505L204.058 12.1301C204.145 11.995 204.145 11.8147 204.058 11.6795C203.97 11.5443 203.838 11.4542 203.706 11.4542H198.482C198.306 11.4542 198.174 11.5443 198.087 11.6795L193.696 20.2863H190.93V12.1301C190.93 11.8598 190.754 11.6795 190.491 11.6795Z" fill="#4EFF01" stroke="#4EFF01" stroke-width="1.55252" stroke-miterlimit="10"/>
<path d="M141.45 29.6138C138.552 29.6138 136.05 27.4959 135.479 24.6119C135.435 24.3866 135.216 24.2064 134.996 24.2515C134.777 24.2965 134.601 24.5218 134.645 24.7471C135.303 28.0817 138.157 30.47 141.45 30.47C145.27 30.47 148.387 27.2706 148.387 23.3502C148.387 19.4299 145.27 16.2305 141.45 16.2305C138.157 16.2305 135.303 18.6187 134.645 21.9533C134.601 22.1786 134.733 22.4039 134.996 22.449C135.216 22.494 135.435 22.3589 135.479 22.0885C136.05 19.1595 138.552 17.0866 141.45 17.0866C144.787 17.0866 147.509 19.8805 147.509 23.3052C147.553 26.82 144.831 29.6138 141.45 29.6138Z" fill="#4EFF01" stroke="#4EFF01" stroke-width="1.55252" stroke-miterlimit="10"/>
<path d="M151.943 22.1334C151.987 22.3587 152.162 22.539 152.426 22.539C152.645 22.4939 152.821 22.3136 152.821 22.0433C152.162 16.1402 147.289 11.6791 141.494 11.6791C135.215 11.6791 130.079 16.9513 130.079 23.3951C130.079 29.839 135.215 35.1112 141.494 35.1112C147.289 35.1112 152.162 30.6501 152.821 24.747C152.865 24.5217 152.689 24.2964 152.426 24.2513C152.206 24.2062 151.987 24.3865 151.943 24.6569C151.328 30.1093 146.806 34.2099 141.45 34.2099C135.611 34.2099 130.913 29.3433 130.913 23.3951C130.913 17.4019 135.654 12.5803 141.45 12.5803C146.806 12.5353 151.328 16.6809 151.943 22.1334Z" fill="#4EFF01" stroke="#4EFF01" stroke-width="1.55252" stroke-miterlimit="10"/>
</svg>
