<svg width="832" height="221" viewBox="0 0 832 221" fill="none" xmlns="http://www.w3.org/2000/svg">
<path d="M101.871 33.1754H104.33V30.0934C108.16 29.6576 110.494 27.0736 110.494 24.2096C110.494 16.2711 98.6956 19.104 98.6956 13.656C98.6956 11.8815 100.47 10.1382 103.085 10.1382C105.389 10.1382 107.132 11.8815 107.132 14.3409H109.965C109.965 11.0721 107.568 8.33255 104.33 7.77219V4.65905H101.871V7.77219C98.2909 8.27029 95.8938 10.9787 95.8938 13.656C95.8938 21.5634 107.661 18.7304 107.661 24.2096C107.661 26.1397 106.105 27.7274 103.085 27.7274C100.097 27.7274 98.54 26.1397 98.54 23.4935H95.707C95.707 27.0114 98.0419 29.6576 101.871 30.0934V33.1754ZM120.164 15.3994C117.704 15.3994 116.272 16.8003 116.272 16.8003L116.988 10.4806H125.798V7.83445H114.529L113.128 20.5049H115.587C115.587 20.5049 116.646 17.8588 119.79 17.8588C122.436 17.8588 124.366 19.7889 124.366 22.7775C124.366 25.7661 122.405 27.7274 119.79 27.7274C117.331 27.7274 115.774 26.1397 115.401 24.3652H112.599C113.128 27.5406 115.774 30.1868 119.79 30.1868C124.024 30.1868 127.199 27.0114 127.199 22.7775C127.199 18.5748 124.024 15.3994 120.164 15.3994ZM131.976 18.9172C131.976 12.94 134.778 10.1382 137.766 10.1382C140.755 10.1382 143.588 12.94 143.588 18.9172C143.588 24.8945 140.755 27.7274 137.766 27.7274C134.778 27.7274 131.976 24.8945 131.976 18.9172ZM146.39 18.9172C146.39 11.6947 142.343 7.64766 137.766 7.64766C133.19 7.64766 129.174 11.6947 129.174 18.9172C129.174 26.1397 133.19 30.1868 137.766 30.1868C142.343 30.1868 146.39 26.1397 146.39 18.9172Z" fill="white"/>
<path d="M109.224 191.065L103.776 194.925L105.022 197.042L108.166 194.925V213.23H110.999V191.065H109.224ZM117.151 202.148C117.151 196.17 119.952 193.369 122.941 193.369C125.93 193.369 128.763 196.17 128.763 202.148C128.763 208.125 125.93 210.958 122.941 210.958C119.952 210.958 117.151 208.125 117.151 202.148ZM131.564 202.148C131.564 194.925 127.517 190.878 122.941 190.878C118.365 190.878 114.349 194.925 114.349 202.148C114.349 209.37 118.365 213.417 122.941 213.417C127.517 213.417 131.564 209.37 131.564 202.148Z" fill="white"/>
<path d="M23.6662 208.23H25.7782L19.8162 192.566H18.0782L12.1162 208.23H14.2282L15.7242 204.38H22.1922L23.6662 208.23ZM18.9582 195.8L21.5542 202.642H16.3402L18.9582 195.8ZM27.2762 192.566V208.23H29.2782V202.268H32.6222C35.3722 202.268 37.5942 200.024 37.5942 197.406C37.5942 194.81 35.3722 192.566 32.6222 192.566H27.2762ZM29.2782 200.53V194.304H32.6222C34.2502 194.304 35.6142 195.668 35.6142 197.406C35.6142 199.166 34.2502 200.53 32.6222 200.53H29.2782ZM48.8246 208.23H51.0686L47.2406 201.652C47.2406 201.652 50.6946 200.772 50.6946 197.164C50.6946 194.678 48.5826 192.566 45.9646 192.566H40.1126V208.23H42.1146V201.762H45.0846L48.8246 208.23ZM42.1146 194.304H45.9646C47.4606 194.304 48.6926 195.558 48.6926 197.164C48.6926 198.792 47.4606 200.024 45.9646 200.024H42.1146V194.304Z" fill="#4EFF01"/>
<path d="M31.2015 27.244H32.9395V25.066C35.6455 24.758 37.2955 22.932 37.2955 20.908C37.2955 15.298 28.9575 17.3 28.9575 13.45C28.9575 12.196 30.2115 10.964 32.0595 10.964C33.6875 10.964 34.9195 12.196 34.9195 13.934H36.9215C36.9215 11.624 35.2275 9.688 32.9395 9.292V7.092H31.2015V9.292C28.6715 9.644 26.9775 11.558 26.9775 13.45C26.9775 19.038 35.2935 17.036 35.2935 20.908C35.2935 22.272 34.1935 23.394 32.0595 23.394C29.9475 23.394 28.8475 22.272 28.8475 20.402H26.8455C26.8455 22.888 28.4955 24.758 31.2015 25.066V27.244Z" fill="#4EFF01"/>
<path d="M206.176 33.1754H208.636V30.0934C212.465 29.6576 214.8 27.0736 214.8 24.2096C214.8 16.2711 203.001 19.104 203.001 13.656C203.001 11.8815 204.775 10.1382 207.39 10.1382C209.694 10.1382 211.438 11.8815 211.438 14.3409H214.271C214.271 11.0721 211.873 8.33255 208.636 7.77219V4.65905H206.176V7.77219C202.596 8.27029 200.199 10.9787 200.199 13.656C200.199 21.5634 211.967 18.7304 211.967 24.2096C211.967 26.1397 210.41 27.7274 207.39 27.7274C204.402 27.7274 202.845 26.1397 202.845 23.4935H200.012C200.012 27.0114 202.347 29.6576 206.176 30.0934V33.1754ZM221.636 7.83445L216.188 11.6947L217.433 13.8117L220.578 11.6947V30H223.41V7.83445H221.636ZM234.668 15.3994C232.209 15.3994 230.776 16.8003 230.776 16.8003L231.492 10.4806H240.303V7.83445H229.033L227.632 20.5049H230.092C230.092 20.5049 231.15 17.8588 234.294 17.8588C236.94 17.8588 238.871 19.7889 238.871 22.7775C238.871 25.7661 236.909 27.7274 234.294 27.7274C231.835 27.7274 230.278 26.1397 229.905 24.3652H227.103C227.632 27.5406 230.278 30.1868 234.294 30.1868C238.528 30.1868 241.704 27.0114 241.704 22.7775C241.704 18.5748 238.528 15.3994 234.668 15.3994ZM246.48 18.9172C246.48 12.94 249.282 10.1382 252.271 10.1382C255.259 10.1382 258.092 12.94 258.092 18.9172C258.092 24.8945 255.259 27.7274 252.271 27.7274C249.282 27.7274 246.48 24.8945 246.48 18.9172ZM260.894 18.9172C260.894 11.6947 256.847 7.64766 252.271 7.64766C247.694 7.64766 243.678 11.6947 243.678 18.9172C243.678 26.1397 247.694 30.1868 252.271 30.1868C256.847 30.1868 260.894 26.1397 260.894 18.9172Z" fill="white"/>
<path d="M221.216 198.63C218.757 198.63 217.325 200.031 217.325 200.031L218.041 193.711H226.851V191.065H215.581L214.18 203.735H216.64C216.64 203.735 217.698 201.089 220.842 201.089C223.489 201.089 225.419 203.019 225.419 206.008C225.419 208.997 223.457 210.958 220.842 210.958C218.383 210.958 216.826 209.37 216.453 207.596H213.651C214.18 210.771 216.826 213.417 220.842 213.417C225.076 213.417 228.252 210.242 228.252 206.008C228.252 201.805 225.076 198.63 221.216 198.63ZM233.028 202.148C233.028 196.17 235.83 193.369 238.819 193.369C241.807 193.369 244.64 196.17 244.64 202.148C244.64 208.125 241.807 210.958 238.819 210.958C235.83 210.958 233.028 208.125 233.028 202.148ZM247.442 202.148C247.442 194.925 243.395 190.878 238.819 190.878C234.242 190.878 230.226 194.925 230.226 202.148C230.226 209.37 234.242 213.417 238.819 213.417C243.395 213.417 247.442 209.37 247.442 202.148Z" fill="white"/>
<path d="M315.255 33.1754H317.714V30.0934C321.543 29.6576 323.878 27.0736 323.878 24.2096C323.878 16.2711 312.079 19.104 312.079 13.656C312.079 11.8815 313.854 10.1382 316.469 10.1382C318.772 10.1382 320.516 11.8815 320.516 14.3409H323.349C323.349 11.0721 320.952 8.33255 317.714 7.77219V4.65905H315.255V7.77219C311.675 8.27029 309.277 10.9787 309.277 13.656C309.277 21.5634 321.045 18.7304 321.045 24.2096C321.045 26.1397 319.488 27.7274 316.469 27.7274C313.48 27.7274 311.924 26.1397 311.924 23.4935H309.091C309.091 27.0114 311.425 29.6576 315.255 30.0934V33.1754ZM329.656 27.5406L336.692 19.7889C336.692 19.7889 339.711 16.9871 339.711 13.8117C339.711 10.4806 336.878 7.64766 332.831 7.64766C328.784 7.64766 325.796 10.6674 325.796 14.3409H328.628C328.628 11.8815 330.372 10.1382 332.831 10.1382C335.291 10.1382 336.878 11.6947 336.878 13.8117C336.878 16.1154 334.761 18.2012 334.761 18.2012L325.982 27.8831V30H339.711V27.5406H329.656ZM349.735 15.3994C347.276 15.3994 345.844 16.8003 345.844 16.8003L346.56 10.4806H355.37V7.83445H344.101L342.7 20.5049H345.159C345.159 20.5049 346.217 17.8588 349.362 17.8588C352.008 17.8588 353.938 19.7889 353.938 22.7775C353.938 25.7661 351.977 27.7274 349.362 27.7274C346.902 27.7274 345.346 26.1397 344.972 24.3652H342.17C342.7 27.5406 345.346 30.1868 349.362 30.1868C353.596 30.1868 356.771 27.0114 356.771 22.7775C356.771 18.5748 353.596 15.3994 349.735 15.3994ZM361.547 18.9172C361.547 12.94 364.349 10.1382 367.338 10.1382C370.327 10.1382 373.159 12.94 373.159 18.9172C373.159 24.8945 370.327 27.7274 367.338 27.7274C364.349 27.7274 361.547 24.8945 361.547 18.9172ZM375.961 18.9172C375.961 11.6947 371.914 7.64766 367.338 7.64766C362.762 7.64766 358.746 11.6947 358.746 18.9172C358.746 26.1397 362.762 30.1868 367.338 30.1868C371.914 30.1868 375.961 26.1397 375.961 18.9172Z" fill="white"/>
<path d="M324.308 191.065L318.86 194.925L320.105 197.042L323.249 194.925V213.23H326.082V191.065H324.308ZM332.234 202.148C332.234 196.17 335.036 193.369 338.024 193.369C341.013 193.369 343.846 196.17 343.846 202.148C343.846 208.125 341.013 210.958 338.024 210.958C335.036 210.958 332.234 208.125 332.234 202.148ZM346.648 202.148C346.648 194.925 342.601 190.878 338.024 190.878C333.448 190.878 329.432 194.925 329.432 202.148C329.432 209.37 333.448 213.417 338.024 213.417C342.601 213.417 346.648 209.37 346.648 202.148ZM351.249 202.148C351.249 196.17 354.051 193.369 357.04 193.369C360.028 193.369 362.861 196.17 362.861 202.148C362.861 208.125 360.028 210.958 357.04 210.958C354.051 210.958 351.249 208.125 351.249 202.148ZM365.663 202.148C365.663 194.925 361.616 190.878 357.04 190.878C352.463 190.878 348.447 194.925 348.447 202.148C348.447 209.37 352.463 213.417 357.04 213.417C361.616 213.417 365.663 209.37 365.663 202.148Z" fill="white"/>
<path d="M429.46 33.1754H431.92V30.0934C435.749 29.6576 438.084 27.0736 438.084 24.2096C438.084 16.2711 426.285 19.104 426.285 13.656C426.285 11.8815 428.059 10.1382 430.674 10.1382C432.978 10.1382 434.721 11.8815 434.721 14.3409H437.554C437.554 11.0721 435.157 8.33255 431.92 7.77219V4.65905H429.46V7.77219C425.88 8.27029 423.483 10.9787 423.483 13.656C423.483 21.5634 435.251 18.7304 435.251 24.2096C435.251 26.1397 433.694 27.7274 430.674 27.7274C427.686 27.7274 426.129 26.1397 426.129 23.4935H423.296C423.296 27.0114 425.631 29.6576 429.46 30.0934V33.1754ZM442.647 13.4692C442.834 11.6947 444.391 10.1382 446.694 10.1382C449.154 10.1382 450.741 11.6947 450.741 13.8117C450.741 15.9286 449.154 17.5163 446.694 17.5163H445.636V19.9757H446.881C449.683 19.9757 451.426 21.6879 451.426 23.836C451.426 25.9529 449.683 27.7274 446.881 27.7274C444.391 27.7274 442.834 26.1397 442.46 24.3652H439.659C440.188 27.5406 442.834 30.1868 446.881 30.1868C451.271 30.1868 454.259 27.1982 454.259 23.836C454.259 19.7889 450.399 18.388 450.399 18.388C450.399 18.388 453.543 16.9871 453.543 13.8117C453.543 10.4806 450.741 7.64766 446.694 7.64766C442.834 7.64766 440.188 10.2938 439.845 13.4692H442.647ZM464.123 15.3994C461.664 15.3994 460.232 16.8003 460.232 16.8003L460.948 10.4806H469.758V7.83445H458.488L457.088 20.5049H459.547C459.547 20.5049 460.605 17.8588 463.75 17.8588C466.396 17.8588 468.326 19.7889 468.326 22.7775C468.326 25.7661 466.365 27.7274 463.75 27.7274C461.29 27.7274 459.734 26.1397 459.36 24.3652H456.558C457.088 27.5406 459.734 30.1868 463.75 30.1868C467.984 30.1868 471.159 27.0114 471.159 22.7775C471.159 18.5748 467.984 15.3994 464.123 15.3994ZM475.935 18.9172C475.935 12.94 478.737 10.1382 481.726 10.1382C484.714 10.1382 487.547 12.94 487.547 18.9172C487.547 24.8945 484.714 27.7274 481.726 27.7274C478.737 27.7274 475.935 24.8945 475.935 18.9172ZM490.349 18.9172C490.349 11.6947 486.302 7.64766 481.726 7.64766C477.15 7.64766 473.134 11.6947 473.134 18.9172C473.134 26.1397 477.15 30.1868 481.726 30.1868C486.302 30.1868 490.349 26.1397 490.349 18.9172Z" fill="white"/>
<path d="M439.653 191.065L434.205 194.925L435.45 197.042L438.595 194.925V213.23H441.428V191.065H439.653ZM452.685 198.63C450.226 198.63 448.794 200.031 448.794 200.031L449.51 193.711H458.32V191.065H447.05L445.649 203.735H448.109C448.109 203.735 449.167 201.089 452.311 201.089C454.958 201.089 456.888 203.019 456.888 206.008C456.888 208.997 454.926 210.958 452.311 210.958C449.852 210.958 448.295 209.37 447.922 207.596H445.12C445.649 210.771 448.295 213.417 452.311 213.417C456.545 213.417 459.721 210.242 459.721 206.008C459.721 201.805 456.545 198.63 452.685 198.63ZM464.497 202.148C464.497 196.17 467.299 193.369 470.288 193.369C473.276 193.369 476.109 196.17 476.109 202.148C476.109 208.125 473.276 210.958 470.288 210.958C467.299 210.958 464.497 208.125 464.497 202.148ZM478.911 202.148C478.911 194.925 474.864 190.878 470.288 190.878C465.711 190.878 461.695 194.925 461.695 202.148C461.695 209.37 465.711 213.417 470.288 213.417C474.864 213.417 478.911 209.37 478.911 202.148Z" fill="white"/>
<path d="M536.732 33.1754H539.191V30.0934C543.021 29.6576 545.355 27.0736 545.355 24.2096C545.355 16.2711 533.557 19.104 533.557 13.656C533.557 11.8815 535.331 10.1382 537.946 10.1382C540.25 10.1382 541.993 11.8815 541.993 14.3409H544.826C544.826 11.0721 542.429 8.33255 539.191 7.77219V4.65905H536.732V7.77219C533.152 8.27029 530.755 10.9787 530.755 13.656C530.755 21.5634 542.522 18.7304 542.522 24.2096C542.522 26.1397 540.966 27.7274 537.946 27.7274C534.957 27.7274 533.401 26.1397 533.401 23.4935H530.568C530.568 27.0114 532.903 29.6576 536.732 30.0934V33.1754ZM561.873 22.7775H559.414V7.83445H556.083L546.744 22.9643V25.2369H556.612V30H559.414V25.2369H561.873V22.7775ZM549.919 22.7775L556.612 11.8815V22.7775H549.919ZM571.213 15.3994C568.753 15.3994 567.321 16.8003 567.321 16.8003L568.037 10.4806H576.847V7.83445H565.578L564.177 20.5049H566.636C566.636 20.5049 567.695 17.8588 570.839 17.8588C573.485 17.8588 575.415 19.7889 575.415 22.7775C575.415 25.7661 573.454 27.7274 570.839 27.7274C568.38 27.7274 566.823 26.1397 566.45 24.3652H563.648C564.177 27.5406 566.823 30.1868 570.839 30.1868C575.073 30.1868 578.248 27.0114 578.248 22.7775C578.248 18.5748 575.073 15.3994 571.213 15.3994ZM583.025 18.9172C583.025 12.94 585.827 10.1382 588.815 10.1382C591.804 10.1382 594.637 12.94 594.637 18.9172C594.637 24.8945 591.804 27.7274 588.815 27.7274C585.827 27.7274 583.025 24.8945 583.025 18.9172ZM597.439 18.9172C597.439 11.6947 593.392 7.64766 588.815 7.64766C584.239 7.64766 580.223 11.6947 580.223 18.9172C580.223 26.1397 584.239 30.1868 588.815 30.1868C593.392 30.1868 597.439 26.1397 597.439 18.9172Z" fill="white"/>
<path d="M541.732 210.771L548.768 203.019C548.768 203.019 551.787 200.218 551.787 197.042C551.787 193.711 548.954 190.878 544.907 190.878C540.86 190.878 537.872 193.898 537.872 197.571H540.704C540.704 195.112 542.448 193.369 544.907 193.369C547.367 193.369 548.954 194.925 548.954 197.042C548.954 199.346 546.837 201.432 546.837 201.432L538.058 211.114V213.23H551.787V210.771H541.732ZM556.706 202.148C556.706 196.17 559.508 193.369 562.496 193.369C565.485 193.369 568.318 196.17 568.318 202.148C568.318 208.125 565.485 210.958 562.496 210.958C559.508 210.958 556.706 208.125 556.706 202.148ZM571.12 202.148C571.12 194.925 567.073 190.878 562.496 190.878C557.92 190.878 553.904 194.925 553.904 202.148C553.904 209.37 557.92 213.417 562.496 213.417C567.073 213.417 571.12 209.37 571.12 202.148ZM575.721 202.148C575.721 196.17 578.523 193.369 581.512 193.369C584.5 193.369 587.333 196.17 587.333 202.148C587.333 208.125 584.5 210.958 581.512 210.958C578.523 210.958 575.721 208.125 575.721 202.148ZM590.135 202.148C590.135 194.925 586.088 190.878 581.512 190.878C576.935 190.878 572.919 194.925 572.919 202.148C572.919 209.37 576.935 213.417 581.512 213.417C586.088 213.417 590.135 209.37 590.135 202.148Z" fill="white"/>
<path d="M650.219 33.1754H652.679V30.0934C656.508 29.6576 658.843 27.0736 658.843 24.2096C658.843 16.2711 647.044 19.104 647.044 13.656C647.044 11.8815 648.818 10.1382 651.433 10.1382C653.737 10.1382 655.48 11.8815 655.48 14.3409H658.313C658.313 11.0721 655.916 8.33255 652.679 7.77219V4.65905H650.219V7.77219C646.639 8.27029 644.242 10.9787 644.242 13.656C644.242 21.5634 656.01 18.7304 656.01 24.2096C656.01 26.1397 654.453 27.7274 651.433 27.7274C648.445 27.7274 646.888 26.1397 646.888 23.4935H644.055C644.055 27.0114 646.39 29.6576 650.219 30.0934V33.1754ZM668.512 15.3994C666.052 15.3994 664.62 16.8003 664.62 16.8003L665.336 10.4806H674.147V7.83445H662.877L661.476 20.5049H663.936C663.936 20.5049 664.994 17.8588 668.138 17.8588C670.784 17.8588 672.715 19.7889 672.715 22.7775C672.715 25.7661 670.753 27.7274 668.138 27.7274C665.679 27.7274 664.122 26.1397 663.749 24.3652H660.947C661.476 27.5406 664.122 30.1868 668.138 30.1868C672.372 30.1868 675.548 27.0114 675.548 22.7775C675.548 18.5748 672.372 15.3994 668.512 15.3994ZM685.43 15.3994C682.97 15.3994 681.538 16.8003 681.538 16.8003L682.254 10.4806H691.064V7.83445H679.795L678.394 20.5049H680.853C680.853 20.5049 681.912 17.8588 685.056 17.8588C687.702 17.8588 689.632 19.7889 689.632 22.7775C689.632 25.7661 687.671 27.7274 685.056 27.7274C682.597 27.7274 681.04 26.1397 680.666 24.3652H677.865C678.394 27.5406 681.04 30.1868 685.056 30.1868C689.29 30.1868 692.465 27.0114 692.465 22.7775C692.465 18.5748 689.29 15.3994 685.43 15.3994ZM697.242 18.9172C697.242 12.94 700.044 10.1382 703.032 10.1382C706.021 10.1382 708.854 12.94 708.854 18.9172C708.854 24.8945 706.021 27.7274 703.032 27.7274C700.044 27.7274 697.242 24.8945 697.242 18.9172ZM711.656 18.9172C711.656 11.6947 707.609 7.64766 703.032 7.64766C698.456 7.64766 694.44 11.6947 694.44 18.9172C694.44 26.1397 698.456 30.1868 703.032 30.1868C707.609 30.1868 711.656 26.1397 711.656 18.9172Z" fill="white"/>
<path d="M656.633 210.771L663.669 203.019C663.669 203.019 666.688 200.218 666.688 197.042C666.688 193.711 663.855 190.878 659.808 190.878C655.761 190.878 652.773 193.898 652.773 197.571H655.605C655.605 195.112 657.349 193.369 659.808 193.369C662.268 193.369 663.855 194.925 663.855 197.042C663.855 199.346 661.738 201.432 661.738 201.432L652.959 211.114V213.23H666.688V210.771H656.633ZM676.712 198.63C674.253 198.63 672.821 200.031 672.821 200.031L673.537 193.711H682.347V191.065H671.078L669.677 203.735H672.136C672.136 203.735 673.194 201.089 676.339 201.089C678.985 201.089 680.915 203.019 680.915 206.008C680.915 208.997 678.954 210.958 676.339 210.958C673.879 210.958 672.323 209.37 671.949 207.596H669.147C669.677 210.771 672.323 213.417 676.339 213.417C680.573 213.417 683.748 210.242 683.748 206.008C683.748 201.805 680.573 198.63 676.712 198.63ZM688.524 202.148C688.524 196.17 691.326 193.369 694.315 193.369C697.304 193.369 700.137 196.17 700.137 202.148C700.137 208.125 697.304 210.958 694.315 210.958C691.326 210.958 688.524 208.125 688.524 202.148ZM702.938 202.148C702.938 194.925 698.891 190.878 694.315 190.878C689.739 190.878 685.723 194.925 685.723 202.148C685.723 209.37 689.739 213.417 694.315 213.417C698.891 213.417 702.938 209.37 702.938 202.148Z" fill="white"/>
<path d="M759.73 33.1754H762.19V30.0934C766.019 29.6576 768.354 27.0736 768.354 24.2096C768.354 16.2711 756.555 19.104 756.555 13.656C756.555 11.8815 758.33 10.1382 760.945 10.1382C763.248 10.1382 764.992 11.8815 764.992 14.3409H767.825C767.825 11.0721 765.428 8.33255 762.19 7.77219V4.65905H759.73V7.77219C756.15 8.27029 753.753 10.9787 753.753 13.656C753.753 21.5634 765.521 18.7304 765.521 24.2096C765.521 26.1397 763.964 27.7274 760.945 27.7274C757.956 27.7274 756.399 26.1397 756.399 23.4935H753.566C753.566 27.0114 755.901 29.6576 759.73 30.0934V33.1754ZM777.649 30.1868C781.883 30.1868 785.214 26.8246 785.214 22.6219C785.214 18.388 781.883 15.0569 777.649 15.0569C776.965 15.0569 776.435 15.2126 776.435 15.2126L781.354 7.83445H778.366L772.046 17.3295C772.046 17.3295 770.116 19.7889 770.116 22.6219C770.116 26.8246 773.447 30.1868 777.649 30.1868ZM772.918 22.6219C772.918 19.7889 775.034 17.7031 777.649 17.7031C780.296 17.7031 782.413 19.7889 782.413 22.6219C782.413 25.6105 780.296 27.7274 777.649 27.7274C775.034 27.7274 772.918 25.5793 772.918 22.6219ZM794.728 15.3994C792.269 15.3994 790.837 16.8003 790.837 16.8003L791.553 10.4806H800.363V7.83445H789.093L787.692 20.5049H790.152C790.152 20.5049 791.21 17.8588 794.354 17.8588C797.001 17.8588 798.931 19.7889 798.931 22.7775C798.931 25.7661 796.969 27.7274 794.354 27.7274C791.895 27.7274 790.338 26.1397 789.965 24.3652H787.163C787.692 27.5406 790.338 30.1868 794.354 30.1868C798.588 30.1868 801.764 27.0114 801.764 22.7775C801.764 18.5748 798.588 15.3994 794.728 15.3994ZM806.54 18.9172C806.54 12.94 809.342 10.1382 812.331 10.1382C815.319 10.1382 818.152 12.94 818.152 18.9172C818.152 24.8945 815.319 27.7274 812.331 27.7274C809.342 27.7274 806.54 24.8945 806.54 18.9172ZM820.954 18.9172C820.954 11.6947 816.907 7.64766 812.331 7.64766C807.754 7.64766 803.738 11.6947 803.738 18.9172C803.738 26.1397 807.754 30.1868 812.331 30.1868C816.907 30.1868 820.954 26.1397 820.954 18.9172Z" fill="white"/>
<path d="M763.683 196.7C763.87 194.925 765.427 193.369 767.73 193.369C770.19 193.369 771.778 194.925 771.778 197.042C771.778 199.159 770.19 200.747 767.73 200.747H766.672V203.206H767.917C770.719 203.206 772.462 204.918 772.462 207.066C772.462 209.183 770.719 210.958 767.917 210.958C765.427 210.958 763.87 209.37 763.497 207.596H760.695C761.224 210.771 763.87 213.417 767.917 213.417C772.307 213.417 775.295 210.429 775.295 207.066C775.295 203.019 771.435 201.618 771.435 201.618C771.435 201.618 774.579 200.218 774.579 197.042C774.579 193.711 771.778 190.878 767.73 190.878C763.87 190.878 761.224 193.524 760.882 196.7H763.683ZM780.054 202.148C780.054 196.17 782.856 193.369 785.844 193.369C788.833 193.369 791.666 196.17 791.666 202.148C791.666 208.125 788.833 210.958 785.844 210.958C782.856 210.958 780.054 208.125 780.054 202.148ZM794.468 202.148C794.468 194.925 790.421 190.878 785.844 190.878C781.268 190.878 777.252 194.925 777.252 202.148C777.252 209.37 781.268 213.417 785.844 213.417C790.421 213.417 794.468 209.37 794.468 202.148ZM799.069 202.148C799.069 196.17 801.871 193.369 804.86 193.369C807.848 193.369 810.681 196.17 810.681 202.148C810.681 208.125 807.848 210.958 804.86 210.958C801.871 210.958 799.069 208.125 799.069 202.148ZM813.483 202.148C813.483 194.925 809.436 190.878 804.86 190.878C800.283 190.878 796.268 194.925 796.268 202.148C796.268 209.37 800.283 213.417 804.86 213.417C809.436 213.417 813.483 209.37 813.483 202.148Z" fill="white"/>
<circle cx="31.5764" cy="107.402" r="25.3498" fill="#4EFF01"/>
<path d="M136.979 72.2681V82.0522" stroke="white" stroke-width="2.6684"/>
<path d="M249.052 72.2681V82.0522" stroke="white" stroke-width="2.6684"/>
<path d="M361.125 72.2681V82.0522" stroke="white" stroke-width="2.6684"/>
<path d="M473.198 72.2681V82.0522" stroke="white" stroke-width="2.6684"/>
<path d="M585.271 72.2681V82.0522" stroke="white" stroke-width="2.6684"/>
<path d="M697.344 72.2681V82.0522" stroke="white" stroke-width="2.6684"/>
<path d="M155.658 72.2681V82.0522" stroke="white" stroke-width="2.6684"/>
<path d="M267.731 72.2681V82.0522" stroke="white" stroke-width="2.6684"/>
<path d="M379.804 72.2681V82.0522" stroke="white" stroke-width="2.6684"/>
<path d="M491.877 72.2681V82.0522" stroke="white" stroke-width="2.6684"/>
<path d="M603.95 72.2681V82.0522" stroke="white" stroke-width="2.6684"/>
<path d="M716.023 72.2681V82.0522" stroke="white" stroke-width="2.6684"/>
<path d="M174.337 72.2681V82.0522" stroke="white" stroke-width="2.6684"/>
<path d="M286.41 72.2681V82.0522" stroke="white" stroke-width="2.6684"/>
<path d="M398.483 72.2681V82.0522" stroke="white" stroke-width="2.6684"/>
<path d="M510.556 72.2681V82.0522" stroke="white" stroke-width="2.6684"/>
<path d="M622.629 72.2681V82.0522" stroke="white" stroke-width="2.6684"/>
<path d="M734.702 72.2681V82.0522" stroke="white" stroke-width="2.6684"/>
<path d="M193.016 72.2681V82.0522" stroke="white" stroke-width="2.6684"/>
<path d="M305.089 72.2681V82.0522" stroke="white" stroke-width="2.6684"/>
<path d="M417.162 72.2681V82.0522" stroke="white" stroke-width="2.6684"/>
<path d="M529.235 72.2681V82.0522" stroke="white" stroke-width="2.6684"/>
<path d="M641.308 72.2681V82.0522" stroke="white" stroke-width="2.6684"/>
<path d="M753.38 72.2681V82.0522" stroke="white" stroke-width="2.6684"/>
<path d="M211.694 72.2681V82.0522" stroke="white" stroke-width="2.6684"/>
<path d="M323.767 72.2681V82.0522" stroke="white" stroke-width="2.6684"/>
<path d="M435.84 72.2681V82.0522" stroke="white" stroke-width="2.6684"/>
<path d="M547.913 72.2681V82.0522" stroke="white" stroke-width="2.6684"/>
<path d="M659.986 72.2681V82.0522" stroke="white" stroke-width="2.6684"/>
<path d="M772.06 72.2681V82.0522" stroke="white" stroke-width="2.6684"/>
<path d="M118.3 82.0522V55.3682" stroke="white" stroke-width="2.6684"/>
<path d="M230.373 82.0522V55.3682" stroke="white" stroke-width="2.6684"/>
<path d="M342.446 82.0522V55.3682" stroke="white" stroke-width="2.6684"/>
<path d="M454.519 82.0522V55.3682" stroke="white" stroke-width="2.6684"/>
<path d="M566.592 82.0522V55.3682" stroke="white" stroke-width="2.6684"/>
<path d="M678.665 82.0522V55.3682" stroke="white" stroke-width="2.6684"/>
<path d="M790.738 82.0522V55.3682" stroke="white" stroke-width="2.6684"/>
<path d="M136.979 149.652V139.868" stroke="white" stroke-width="2.6684"/>
<path d="M249.052 149.652V139.868" stroke="white" stroke-width="2.6684"/>
<path d="M361.125 149.652V139.868" stroke="white" stroke-width="2.6684"/>
<path d="M473.198 149.652V139.868" stroke="white" stroke-width="2.6684"/>
<path d="M585.271 149.652V139.868" stroke="white" stroke-width="2.6684"/>
<path d="M697.344 149.652V139.868" stroke="white" stroke-width="2.6684"/>
<path d="M155.658 149.652V139.868" stroke="white" stroke-width="2.6684"/>
<path d="M267.731 149.652V139.868" stroke="white" stroke-width="2.6684"/>
<path d="M379.804 149.652V139.868" stroke="white" stroke-width="2.6684"/>
<path d="M491.877 149.652V139.868" stroke="white" stroke-width="2.6684"/>
<path d="M603.95 149.652V139.868" stroke="white" stroke-width="2.6684"/>
<path d="M716.023 149.652V139.868" stroke="white" stroke-width="2.6684"/>
<path d="M174.337 149.652V139.868" stroke="white" stroke-width="2.6684"/>
<path d="M286.41 149.652V139.868" stroke="white" stroke-width="2.6684"/>
<path d="M398.483 149.652V139.868" stroke="white" stroke-width="2.6684"/>
<path d="M510.556 149.652V139.868" stroke="white" stroke-width="2.6684"/>
<path d="M622.629 149.652V139.868" stroke="white" stroke-width="2.6684"/>
<path d="M734.702 149.652V139.868" stroke="white" stroke-width="2.6684"/>
<path d="M193.016 149.652V139.868" stroke="white" stroke-width="2.6684"/>
<path d="M305.089 149.652V139.868" stroke="white" stroke-width="2.6684"/>
<path d="M417.162 149.652V139.868" stroke="white" stroke-width="2.6684"/>
<path d="M529.235 149.652V139.868" stroke="white" stroke-width="2.6684"/>
<path d="M641.308 149.652V139.868" stroke="white" stroke-width="2.6684"/>
<path d="M753.38 149.652V139.868" stroke="white" stroke-width="2.6684"/>
<path d="M211.694 149.652V139.868" stroke="white" stroke-width="2.6684"/>
<path d="M323.767 149.652V139.868" stroke="white" stroke-width="2.6684"/>
<path d="M435.84 149.652V139.868" stroke="white" stroke-width="2.6684"/>
<path d="M547.913 149.652V139.868" stroke="white" stroke-width="2.6684"/>
<path d="M659.986 149.652V139.868" stroke="white" stroke-width="2.6684"/>
<path d="M772.06 149.652V139.868" stroke="white" stroke-width="2.6684"/>
<path d="M118.3 139.868V166.552" stroke="white" stroke-width="2.6684"/>
<path d="M230.373 139.868V166.552" stroke="white" stroke-width="2.6684"/>
<path d="M342.446 139.868V166.552" stroke="white" stroke-width="2.6684"/>
<path d="M454.519 139.868V166.552" stroke="white" stroke-width="2.6684"/>
<path d="M566.592 139.868V166.552" stroke="white" stroke-width="2.6684"/>
<path d="M678.665 139.868V166.552" stroke="white" stroke-width="2.6684"/>
<path d="M790.738 139.868V166.552" stroke="white" stroke-width="2.6684"/>
<rect x="32.9111" y="96.2837" width="529.234" height="22.2367" fill="#4EFF01"/>
<path d="M558 96H820.5C826.851 96 832 101.149 832 107.5C832 113.851 826.851 119 820.5 119H558V96Z" fill="#454545"/>
<path d="M32 49L30 165" stroke="#4EFF01" stroke-width="3"/>
</svg>
