<?xml version="1.0" standalone="no"?>
<!DOCTYPE svg PUBLIC "-//W3C//DTD SVG 20010904//EN"
 "http://www.w3.org/TR/2001/REC-SVG-20010904/DTD/svg10.dtd">
<svg version="1.0" xmlns="http://www.w3.org/2000/svg"
 width="664.000000pt" height="664.000000pt" viewBox="0 0 664.000000 664.000000"
 preserveAspectRatio="xMidYMid meet">
<metadata>
Created by potrace 1.14, written by Peter Selinger 2001-2017
</metadata>
<g transform="translate(0.000000,664.000000) scale(0.100000,-0.100000)"
fill="#000000" stroke="none">
<path d="M3283 6587 c-12 -5 -50 -37 -85 -71 -36 -33 -84 -78 -109 -100 -54
-47 -212 -190 -255 -231 -18 -16 -51 -46 -73 -65 -23 -19 -63 -55 -90 -80 -26
-25 -67 -62 -91 -82 -41 -37 -177 -158 -229 -207 -14 -12 -57 -51 -95 -85 -38
-33 -83 -74 -100 -89 -42 -38 -76 -69 -175 -157 -184 -164 -202 -183 -208
-224 -6 -46 1 -76 24 -103 43 -48 110 -57 160 -20 16 12 67 56 112 97 97 89
123 113 227 207 43 39 91 82 105 95 82 75 205 186 223 201 11 10 59 54 106 97
47 43 95 87 108 98 26 23 180 163 228 207 29 27 106 96 220 198 l41 37 28 -22
c15 -12 37 -31 49 -42 12 -12 50 -46 85 -76 35 -30 72 -62 81 -70 9 -8 46 -40
80 -70 35 -30 68 -59 74 -65 6 -5 45 -39 86 -75 41 -36 92 -81 113 -100 60
-55 96 -72 141 -65 120 18 150 140 56 225 -42 38 -140 123 -185 161 -22 19
-47 41 -55 49 -8 8 -44 40 -80 70 -36 30 -72 62 -80 70 -8 9 -62 56 -120 105
-57 50 -127 111 -154 137 -57 56 -108 70 -163 45z"/>
<path d="M4555 5848 c-22 -17 -60 -50 -85 -72 -25 -23 -59 -52 -75 -66 -57
-49 -190 -165 -220 -192 -16 -14 -41 -36 -55 -48 -91 -77 -163 -148 -174 -170
-19 -37 -9 -108 18 -135 44 -44 120 -47 168 -7 18 15 41 34 51 42 11 8 24 20
31 26 6 5 45 39 86 74 41 35 77 67 80 70 3 3 48 41 100 85 52 44 110 94 129
112 41 37 32 41 152 -68 46 -42 111 -100 144 -130 33 -29 65 -58 71 -63 6 -6
46 -42 89 -81 43 -38 86 -77 95 -85 9 -8 54 -49 100 -90 47 -41 94 -84 106
-95 11 -11 51 -47 88 -80 38 -33 86 -76 107 -96 21 -19 56 -52 79 -72 23 -20
76 -67 117 -104 42 -37 94 -84 116 -103 l39 -36 0 -1408 c0 -775 -4 -1412 -9
-1416 -4 -5 -46 -28 -93 -53 -213 -111 -612 -318 -780 -404 -391 -202 -481
-249 -545 -283 -38 -20 -144 -75 -235 -121 -91 -46 -166 -87 -168 -91 -2 -5
-12 -8 -22 -8 -10 0 -20 -3 -22 -8 -1 -4 -59 -36 -128 -71 -69 -35 -161 -82
-205 -105 -44 -23 -148 -77 -232 -121 l-152 -78 -73 38 c-40 20 -113 59 -163
85 -49 26 -148 78 -220 115 -71 37 -143 76 -160 85 -16 10 -95 51 -175 93 -80
41 -179 93 -220 114 -41 22 -120 64 -175 93 -55 29 -136 72 -180 95 -75 40
-124 66 -403 211 -59 31 -138 73 -177 94 -80 43 -204 108 -390 205 -71 38
-157 83 -190 100 l-60 33 0 1413 0 1413 41 41 c22 22 96 92 165 157 68 64 156
146 194 183 39 36 126 119 195 184 69 65 146 138 171 162 25 24 106 100 179
169 241 227 248 234 255 271 12 65 -10 121 -55 138 -66 27 -114 17 -165 -33
-12 -11 -81 -77 -154 -146 -73 -69 -161 -152 -196 -185 -35 -33 -125 -118
-201 -190 -75 -71 -158 -150 -184 -175 -194 -184 -344 -326 -393 -371 -103
-95 -93 82 -92 -1624 1 -1017 5 -1508 12 -1525 15 -35 35 -51 143 -107 52 -28
138 -73 190 -101 52 -27 142 -74 200 -104 58 -31 155 -81 215 -113 61 -32 153
-80 205 -108 52 -27 118 -61 145 -76 28 -15 131 -69 230 -120 99 -52 194 -102
210 -111 17 -9 77 -41 135 -70 58 -30 117 -62 132 -73 16 -10 28 -15 28 -11 0
3 6 2 13 -3 16 -14 121 -70 237 -128 52 -26 102 -54 112 -62 9 -8 22 -15 30
-17 7 -1 18 -4 23 -8 6 -3 69 -37 140 -74 72 -38 162 -85 200 -105 150 -80
194 -101 224 -105 32 -5 61 9 443 210 53 28 141 74 195 103 54 28 154 81 223
117 69 37 154 81 190 99 36 17 67 34 70 37 3 3 61 34 130 69 69 35 148 76 175
91 79 43 129 68 139 68 5 0 12 4 15 9 3 4 40 26 81 47 85 44 232 121 335 176
39 20 133 70 210 110 77 41 194 102 260 137 66 35 149 78 185 96 36 17 67 34
70 37 3 3 22 14 43 24 46 24 78 73 77 118 -1 18 -1 682 0 1475 1 793 -2 1459
-6 1480 -7 39 -59 96 -204 223 -35 30 -75 66 -90 80 -41 38 -162 146 -188 168
-12 11 -55 48 -94 83 -95 86 -87 78 -144 129 -27 25 -87 79 -134 120 -46 41
-91 82 -100 90 -9 8 -76 69 -150 135 -74 66 -140 125 -146 130 -183 166 -197
175 -268 175 -32 0 -51 -8 -81 -32z"/>
<path d="M1727 4323 c-1 -1 -27 -2 -57 -4 -65 -3 -101 -20 -125 -61 -16 -28
-17 -91 -17 -970 1 -895 2 -941 19 -971 38 -64 13 -62 756 -62 624 0 675 2
700 18 84 55 77 168 -13 211 -19 9 -174 12 -622 12 l-598 -1 -1 25 c0 31 0
1505 1 1543 l0 27 99 0 99 0 -1 -689 0 -688 23 -33 c13 -18 37 -38 54 -44 45
-18 909 -16 951 2 60 25 86 119 47 171 -40 56 -45 56 -455 56 l-377 -1 0 51
c-1 27 -1 334 -1 681 0 608 -1 632 -20 663 -32 54 -68 62 -276 64 -101 1 -185
1 -186 0z"/>
<path d="M3241 3710 c-25 -8 -53 -27 -65 -43 -21 -28 -21 -35 -23 -860 -2
-892 -4 -854 46 -896 14 -12 14 -14 1 -19 -8 -3 -27 -19 -42 -35 -54 -56 -29
-152 46 -182 22 -8 100 -11 256 -11 199 1 229 4 256 20 57 34 58 38 60 326 1
146 2 268 3 272 1 3 76 5 168 5 l166 -2 172 -290 c95 -159 184 -298 199 -309
25 -19 43 -21 271 -21 265 -1 294 4 329 52 34 46 25 88 -46 213 -36 63 -75
131 -85 150 -11 19 -61 105 -110 192 l-90 156 41 40 c60 57 98 101 132 152 25
38 65 112 69 130 1 3 4 12 8 20 16 40 39 160 39 205 0 29 -12 169 -17 197 -32
181 -163 377 -300 451 -52 28 -145 67 -145 61 0 -3 -8 0 -17 5 -51 27 -159 31
-768 34 -431 2 -517 0 -554 -13z m791 -231 c396 -1 449 -6 543 -50 96 -45 174
-147 205 -268 7 -25 14 -85 16 -135 5 -105 -12 -184 -57 -262 -36 -64 -128
-159 -191 -198 -47 -29 -71 -67 -74 -114 0 -13 39 -93 88 -179 48 -86 88 -158
88 -160 0 -2 5 -9 11 -16 5 -7 34 -55 64 -107 l54 -95 -47 -5 c-97 -10 -116
-4 -149 53 -306 527 -333 566 -395 568 -18 0 -150 1 -294 1 -380 1 -357 23
-358 -354 l-1 -267 -45 -3 c-25 -2 -71 -1 -103 0 l-58 4 26 23 c14 14 26 36
26 52 1 15 2 361 3 768 l1 740 123 1 c68 1 126 5 129 8 3 3 9 3 14 0 5 -2 176
-5 381 -5z"/>
<path d="M3561 3398 c-75 -13 -111 -53 -111 -125 0 -29 8 -43 39 -73 l38 -36
-29 -17 c-15 -9 -33 -29 -39 -44 -5 -15 -10 -108 -11 -208 0 -198 6 -228 59
-262 24 -16 59 -17 352 -17 179 1 337 3 351 6 67 15 88 23 132 44 51 26 138
103 138 122 0 7 3 12 8 12 7 0 14 14 45 91 10 25 15 68 13 135 -1 86 -5 107
-30 161 -47 102 -141 176 -256 202 -24 5 -145 10 -269 11 -124 1 -263 2 -308
3 -45 1 -100 -1 -122 -5z m686 -245 c115 -39 100 -224 -21 -282 -43 -20 -62
-21 -287 -22 -132 -1 -242 1 -245 4 -3 3 -6 59 -7 125 -2 108 -4 124 -24 151
-13 17 -23 33 -23 35 0 3 127 5 283 4 215 -1 292 -4 324 -15z"/>
</g>
</svg>
