<svg width="234" height="127" viewBox="0 0 234 127" fill="none" xmlns="http://www.w3.org/2000/svg">
<ellipse cx="116.759" cy="19.8215" rx="104.247" ry="55.5189" transform="rotate(-36.7083 116.759 19.8215)" stroke="#4EFF01" stroke-width="3"/>
<path fill-rule="evenodd" clip-rule="evenodd" d="M99.0243 79.4498L98.856 79.4212L99.0063 79.5023C98.5702 81.0034 104.311 84.3482 112.313 87.3765C109.773 95.5469 108.874 102.13 110.325 102.71L110.297 102.878L110.378 102.728C111.879 103.164 115.224 97.424 118.252 89.4216C126.423 91.962 133.005 92.8605 133.586 91.409L133.754 91.4377L133.604 91.3566C134.04 89.8554 128.3 86.5107 120.297 83.4823C122.838 75.3119 123.736 68.7293 122.285 68.1487L122.313 67.9804L122.232 68.1306C120.731 67.6945 117.386 73.4348 114.358 81.4372C106.188 78.8968 99.6049 77.9984 99.0243 79.4498ZM99.7648 79.9116C99.8834 80.0945 100.092 80.33 100.413 80.6135C101.11 81.2279 102.215 81.961 103.669 82.7632C105.868 83.9762 108.797 85.3112 112.157 86.599L99.7648 79.9116ZM113.756 81.9539L99.8741 79.5942C100.08 79.5231 100.389 79.4658 100.817 79.4404C101.745 79.3854 103.067 79.4881 104.706 79.751C107.186 80.1487 110.316 80.9003 113.756 81.9539ZM112.829 87.9784C111.776 91.4186 111.024 94.549 110.627 97.028C110.364 98.6676 110.261 99.9898 110.316 100.917C110.341 101.345 110.399 101.654 110.47 101.86L112.829 87.9784ZM110.787 101.97L117.475 89.5778C116.187 92.9374 114.852 95.8669 113.639 98.0652C112.837 99.5191 112.104 100.624 111.489 101.321C111.206 101.643 110.97 101.851 110.787 101.97ZM118.854 88.905L132.736 91.2646C132.53 91.3357 132.221 91.393 131.793 91.4185C130.865 91.4735 129.543 91.3708 127.904 91.1078C125.425 90.7102 122.294 89.9586 118.854 88.905ZM132.845 90.9472L120.453 84.2599C123.813 85.5477 126.743 86.8827 128.941 88.0957C130.395 88.8979 131.5 89.631 132.197 90.2454C132.518 90.5289 132.727 90.7644 132.845 90.9472ZM119.781 82.8804L122.14 68.9984C122.211 69.2044 122.269 69.5136 122.294 69.9415C122.349 70.869 122.246 72.1912 121.984 73.8308C121.586 76.3099 120.834 79.4402 119.781 82.8804ZM121.823 68.8891L115.136 81.281C116.423 77.9214 117.758 74.9919 118.971 72.7936C119.774 71.3397 120.507 70.2346 121.121 69.5376C121.405 69.216 121.64 69.0077 121.823 68.8891Z" fill="#4EFF01"/>
</svg>
