<svg width="62" height="72" viewBox="0 0 62 72" fill="none" xmlns="http://www.w3.org/2000/svg">
<path d="M1.15314 53.5359C1.38133 53.8573 1.69675 54.0898 2.08265 54.0898C2.31085 54.0898 2.46855 54.0179 2.69555 53.9291L15.8234 46.2323L12.9668 56.9284C12.8091 57.5711 13.195 58.1786 13.7374 58.3392C13.8246 58.3392 13.9823 58.3392 14.0528 58.3392C14.508 58.3392 14.9823 58.0361 15.14 57.5711L18.5223 44.5708L29.8091 37.9817V52.0533L20.5379 61.5711C20.0827 61.9642 20.0827 62.6776 20.5379 63.1426C20.9238 63.6063 21.6239 63.6063 22.0803 63.1426L29.8091 55.2851V69.9105C29.8091 70.535 30.2643 71 30.8784 71C31.5092 71 32.0349 70.5362 32.0349 69.9105V55.2863L39.7637 63.1438C39.9214 63.3933 40.2189 63.4469 40.5355 63.4469C40.8521 63.4469 41.0791 63.3933 41.3073 63.1438C41.7625 62.68 41.7625 61.9655 41.3073 61.5723L32.0361 52.0545V37.5897L43.4639 44.2689L46.8641 57.251C47.0218 57.7148 47.477 58.108 47.9513 58.108C48.0218 58.108 48.109 58.0361 48.2667 58.0361C48.7924 57.8755 49.1783 57.2498 49.0373 56.6071L46.1807 45.911L59.3086 53.6248C59.5368 53.6966 59.6945 53.7854 59.8343 53.7854C60.2202 53.7854 60.6061 53.5359 60.851 53.2316C61.1485 52.6777 60.9908 51.9632 60.4651 51.6601L47.3372 43.9451L57.8354 41.0346C58.4483 40.8922 58.765 40.2483 58.6073 39.7127C58.4495 39.0699 57.8354 38.6768 57.293 38.8374L44.5511 42.2835L33.5092 35.7663L45.0947 28.9983L57.8366 32.4626C57.9071 32.4626 57.9944 32.4626 58.0648 32.4626C58.6084 32.4626 59.0636 32.1413 59.1521 31.5874C59.3098 31.0518 58.9944 30.4261 58.3802 30.2484L47.7936 27.355L60.2202 20.0331C60.7638 19.7118 60.9908 19.0861 60.6933 18.5335C60.3779 17.9979 59.6945 17.7483 59.1509 18.0697L46.7064 25.3915L49.563 14.6772C49.7207 14.0527 49.3348 13.4271 48.7924 13.2664C48.1795 13.1057 47.5654 13.5159 47.4077 14.0527L44.0075 27.0348L32.0361 34.0353V20.8219L41.3073 11.3041C41.7625 10.911 41.7625 10.2147 41.3073 9.73265C40.8521 9.26888 40.1508 9.26888 39.7649 9.73265L32.0361 17.6071V2.17831C32.0361 1.5356 31.5104 1 30.8796 1C30.2667 1 29.8103 1.5356 29.8103 2.17831V17.6071L22.0815 9.73265C21.6263 9.26888 20.925 9.26888 20.5391 9.73265C20.0839 10.2147 20.0839 10.911 20.5391 11.3041L29.8103 20.8219V33.6434L17.9967 26.7147L14.5964 13.7508C14.4387 13.1799 13.8246 12.7868 13.1938 12.9474C12.6681 13.1081 12.2822 13.7508 12.4232 14.3765L15.2798 25.0726L2.85326 17.7496C2.30965 17.4282 1.62626 17.6777 1.31084 18.2133C0.995431 18.7842 1.24035 19.4099 1.69675 19.713L14.1233 27.0348L3.62507 29.9465C3.01216 30.1072 2.69675 30.7329 2.85445 31.3574C2.94167 31.8394 3.39806 32.1425 3.94048 32.1425C4.01097 32.1425 4.09818 32.1425 4.16867 32.1425L16.9106 28.6964L29.0397 35.7675L17.367 42.6244L4.71109 39.143C4.16748 38.9823 3.55458 39.3925 3.39687 40.0182C3.16867 40.572 3.55458 41.1965 4.16748 41.3572L14.6657 44.2677L1.53904 51.9644C0.995431 52.2858 0.855645 53.0003 1.15314 53.5359Z" fill="white" stroke="white" stroke-width="2"/>
</svg>
